<svg width="23" height="28" viewBox="0 0 23 28" fill="none" xmlns="http://www.w3.org/2000/svg">
<path d="M18.9844 9.99716L17.7699 12.6307H0.958807L1.91761 9.99716H18.9844ZM16.696 15.1875L15.456 17.8466H0.958807L1.91761 15.1875H16.696ZM22.1037 3.0554L20.5952 6.28977C20.1179 5.88068 19.598 5.50994 19.0355 5.17756C18.473 4.84517 17.8679 4.58096 17.2202 4.38494C16.5724 4.1804 15.8778 4.07812 15.1364 4.07812C13.7727 4.07812 12.5582 4.4446 11.4929 5.17756C10.4276 5.91051 9.58807 7.00994 8.97443 8.47585C8.36932 9.93324 8.06676 11.7486 8.06676 13.9219C8.06676 16.0952 8.36932 17.9105 8.97443 19.3679C9.58807 20.8253 10.4276 21.9205 11.4929 22.6534C12.5582 23.3778 13.7727 23.7401 15.1364 23.7401C15.8864 23.7401 16.5852 23.642 17.233 23.446C17.8892 23.25 18.4858 22.9943 19.0227 22.679C19.5682 22.3551 20.0582 22.0142 20.4929 21.6562L22.0398 24.8778C21.1364 25.696 20.0881 26.3139 18.8949 26.7315C17.7017 27.1491 16.4489 27.358 15.1364 27.358C12.9972 27.358 11.1009 26.8168 9.44744 25.7344C7.80256 24.652 6.51136 23.1094 5.57386 21.1065C4.63636 19.0952 4.16761 16.7003 4.16761 13.9219C4.16761 11.1349 4.63636 8.73579 5.57386 6.72443C6.51136 4.71307 7.80256 3.16619 9.44744 2.08381C11.1009 1.00142 12.9972 0.460226 15.1364 0.460226C16.5 0.460226 17.7699 0.686078 18.946 1.13778C20.1222 1.58096 21.1747 2.22017 22.1037 3.0554Z" fill="#155DFF"/>
</svg>
