<svg width="41" height="47" viewBox="0 0 41 47" fill="none" xmlns="http://www.w3.org/2000/svg">
<path d="M24.5909 28.7727H0.568182V22.8182H24.5C26.5606 22.8182 28.2652 22.4773 29.6136 21.7955C30.9621 21.0985 31.9621 20.1439 32.6136 18.9318C33.2652 17.7045 33.5909 16.2955 33.5909 14.7045C33.5909 13.1288 33.2652 11.7197 32.6136 10.4773C31.9621 9.23485 30.9697 8.25757 29.6364 7.54545C28.303 6.81818 26.6212 6.45454 24.5909 6.45454H14.6818V47H7.68182V0.454544H24.5909C28.1212 0.454544 31.0682 1.09091 33.4318 2.36364C35.8106 3.63636 37.5909 5.34848 38.7727 7.5C39.9697 9.65151 40.5682 12.0455 40.5682 14.6818C40.5682 17.3485 39.9621 19.75 38.75 21.8864C37.553 24.0076 35.7652 25.6894 33.3864 26.9318C31.0227 28.1591 28.0909 28.7727 24.5909 28.7727ZM24.9318 32.6818V38.6591H0.568182V32.6818H24.9318Z" fill="#155DFF"/>
</svg>
