<svg width="21" height="34" viewBox="0 0 21 34" fill="none" xmlns="http://www.w3.org/2000/svg">
<path d="M9.59801 33.2727V0.545453H11.6946V33.2727H9.59801ZM16.1562 10.696C16.0199 9.48579 15.4574 8.54829 14.4688 7.88352C13.4801 7.21023 12.2358 6.87358 10.7358 6.87358C9.66193 6.87358 8.73295 7.04403 7.94886 7.38494C7.16477 7.71733 6.5554 8.17756 6.12074 8.76562C5.6946 9.34517 5.48153 10.0057 5.48153 10.7472C5.48153 11.3693 5.62642 11.9062 5.91619 12.358C6.21449 12.8097 6.60227 13.1889 7.07955 13.4957C7.56534 13.794 8.08523 14.0455 8.6392 14.25C9.19318 14.446 9.72585 14.608 10.2372 14.7358L12.794 15.4006C13.6293 15.6051 14.4858 15.8821 15.3636 16.2315C16.2415 16.581 17.0554 17.0412 17.8054 17.6122C18.5554 18.1832 19.1605 18.8906 19.6207 19.7344C20.0895 20.5781 20.3239 21.5881 20.3239 22.7642C20.3239 24.2472 19.9403 25.5639 19.1733 26.7145C18.4148 27.8651 17.3111 28.7727 15.8622 29.4375C14.4219 30.1023 12.679 30.4347 10.6335 30.4347C8.6733 30.4347 6.97727 30.1236 5.54545 29.5014C4.11364 28.8793 2.9929 27.9972 2.18324 26.8551C1.37358 25.7045 0.926136 24.3409 0.840909 22.7642H4.80398C4.88068 23.7102 5.1875 24.4986 5.72443 25.1293C6.26989 25.7514 6.96449 26.2159 7.80824 26.5227C8.66051 26.821 9.59375 26.9702 10.608 26.9702C11.7244 26.9702 12.7173 26.7955 13.5866 26.446C14.4645 26.0881 15.1548 25.5937 15.6577 24.9631C16.1605 24.3239 16.4119 23.5781 16.4119 22.7259C16.4119 21.9503 16.1903 21.3153 15.7472 20.821C15.3125 20.3267 14.7202 19.9176 13.9702 19.5938C13.2287 19.2699 12.3892 18.9844 11.4517 18.7372L8.35795 17.8935C6.26136 17.3224 4.59943 16.483 3.37216 15.375C2.15341 14.267 1.54403 12.8011 1.54403 10.9773C1.54403 9.46875 1.95313 8.15199 2.77131 7.02699C3.58949 5.90199 4.69744 5.02841 6.09517 4.40625C7.4929 3.77557 9.0696 3.46023 10.8253 3.46023C12.598 3.46023 14.1619 3.77131 15.517 4.39347C16.8807 5.01563 17.9545 5.87216 18.7386 6.96307C19.5227 8.04545 19.9318 9.28977 19.9659 10.696H16.1562Z" fill="#155DFF"/>
</svg>
