<svg width="40" height="44" viewBox="0 0 40 44" fill="none" xmlns="http://www.w3.org/2000/svg">
<path d="M23.7199 15.1233V9.42808H34.7685V0.750488H4.68279V9.42808H15.7327V15.1187C6.75233 15.6049 0 17.7014 0 20.2129C0 22.7243 6.75558 24.8208 15.7327 25.3101V43.5527H23.7225V25.3085C32.6866 24.8208 39.4253 22.7259 39.4253 20.2167C39.4253 17.7075 32.6866 15.6126 23.7225 15.1248M23.7225 23.7634V23.7588C23.4971 23.7756 22.3389 23.8576 19.7601 23.8576C17.6983 23.8576 16.2478 23.7886 15.7366 23.7572V23.7649C7.80269 23.3507 1.88052 21.722 1.88052 19.7733C1.88052 17.8247 7.80334 16.1983 15.7366 15.7833V22.1424C16.2563 22.1845 17.7425 22.2879 19.7938 22.2879C22.2577 22.2879 23.4964 22.1669 23.7238 22.1424V15.7833C31.6421 16.1991 37.5506 17.8293 37.5506 19.7711C37.5506 21.7128 31.6395 23.3438 23.7238 23.7595" fill="#155DFF"/>
</svg>
