<svg width="233" height="29" viewBox="0 0 233 29" fill="none" xmlns="http://www.w3.org/2000/svg">
<path d="M0.862813 -1.90735e-06H5.78281L14.9428 16.64L23.9028 -1.90735e-06H28.8228V28H23.4228V10.28L17.5428 20.92C17.1428 21.64 16.7295 22.16 16.3028 22.48C15.9028 22.7733 15.4361 22.92 14.9028 22.92H13.3828L6.26281 10.28V28H0.862813V-1.90735e-06ZM41.3525 28.32C39.6725 28.32 38.1792 28 36.8725 27.36C35.5925 26.6933 34.5925 25.76 33.8725 24.56C33.1792 23.36 32.8325 21.9733 32.8325 20.4V15.72C32.8325 14.1467 33.1925 12.76 33.9125 11.56C34.6325 10.3333 35.6325 9.38667 36.9125 8.72C38.2192 8.05333 39.7125 7.72 41.3925 7.72H44.9925C46.6725 7.72 48.1525 8.05333 49.4325 8.72C50.7392 9.38667 51.7525 10.3333 52.4725 11.56C53.1925 12.76 53.5525 14.1467 53.5525 15.72V20.4C53.5525 21.9733 53.1925 23.36 52.4725 24.56C51.7525 25.76 50.7392 26.6933 49.4325 27.36C48.1525 28 46.6592 28.32 44.9525 28.32H41.3525ZM44.8725 23.64C45.8592 23.64 46.6458 23.3067 47.2325 22.64C47.8192 21.9467 48.1125 21.0533 48.1125 19.96V16.08C48.1125 14.9867 47.8192 14.1067 47.2325 13.44C46.6458 12.7467 45.8725 12.4 44.9125 12.4H41.4725C40.5125 12.4 39.7392 12.7467 39.1525 13.44C38.5658 14.1067 38.2725 14.9867 38.2725 16.08V19.96C38.2725 21.0533 38.5658 21.9467 39.1525 22.64C39.7392 23.3067 40.4992 23.64 41.4325 23.64H44.8725ZM57.3825 8.04H62.4225V10.44C63.0092 9.61333 63.7692 8.96 64.7025 8.48C65.6358 7.97333 66.5692 7.72 67.5025 7.72H69.9025C72.0358 7.72 73.7425 8.38667 75.0225 9.72C76.3292 11.0533 76.9825 12.8133 76.9825 15V28H71.5425V15.2C71.5425 14.3733 71.3158 13.7067 70.8625 13.2C70.4358 12.6933 69.8758 12.44 69.1825 12.44H66.7825C65.8492 12.44 65.0092 12.7867 64.2625 13.48C63.5425 14.1467 63.0625 15.0267 62.8225 16.12V28H57.3825V8.04ZM89.1269 28.32C87.4469 28.32 85.9535 28.0133 84.6469 27.4C83.3669 26.76 82.3669 25.88 81.6469 24.76C80.9269 23.6133 80.5669 22.3067 80.5669 20.84V15.68C80.5669 14.1067 80.9269 12.72 81.6469 11.52C82.3669 10.32 83.3669 9.38667 84.6469 8.72C85.9535 8.05333 87.4469 7.72 89.1269 7.72H92.3269C94.8869 7.72 96.9402 8.44 98.4869 9.88C100.034 11.32 100.807 13.24 100.807 15.64V19.88H86.0069V20.84C86.0069 21.72 86.2869 22.4267 86.8469 22.96C87.4069 23.4933 88.1669 23.76 89.1269 23.76H92.2469C93.1802 23.76 93.9269 23.56 94.4869 23.16C95.0735 22.7333 95.3669 22.1867 95.3669 21.52H100.727C100.727 22.8533 100.367 24.04 99.6469 25.08C98.9269 26.12 97.9135 26.92 96.6069 27.48C95.3269 28.04 93.8469 28.32 92.1669 28.32H89.1269ZM95.4469 15.96V15.64C95.4469 14.6 95.1669 13.7733 94.6069 13.16C94.0469 12.52 93.3002 12.2 92.3669 12.2H89.1269C88.1669 12.2 87.3935 12.5333 86.8069 13.2C86.2202 13.8667 85.9269 14.7467 85.9269 15.84V15.96H95.4469ZM112.978 28C110.631 28 108.911 27.4667 107.817 26.4C106.724 25.3333 106.178 23.68 106.178 21.44V12.68H102.658V8.04H106.338V2H111.618V8.04H116.818V12.68H111.618V21.2C111.618 21.9467 111.751 22.4933 112.018 22.84C112.311 23.1867 112.764 23.36 113.378 23.36H116.818V28H112.978ZM126.515 28.32C124.435 28.32 122.755 27.8 121.475 26.76C120.195 25.72 119.555 24.3467 119.555 22.64V21.16C119.555 19.48 120.222 18.1333 121.555 17.12C122.888 16.08 124.648 15.56 126.835 15.56H129.275C129.968 15.56 130.715 15.6533 131.515 15.84C132.315 16.0267 133.048 16.28 133.715 16.6V14.52C133.715 13.8533 133.488 13.32 133.035 12.92C132.608 12.4933 132.035 12.28 131.315 12.28H127.875C127.128 12.28 126.528 12.4533 126.075 12.8C125.622 13.1467 125.395 13.6133 125.395 14.2H120.115C120.115 12.2533 120.822 10.6933 122.235 9.52C123.675 8.32 125.555 7.72 127.875 7.72H131.315C133.662 7.72 135.555 8.34667 136.995 9.6C138.435 10.8267 139.155 12.4667 139.155 14.52V28H134.115V25.6C133.475 26.4267 132.688 27.0933 131.755 27.6C130.822 28.08 129.902 28.32 128.995 28.32H126.515ZM129.395 24.16C130.382 24.16 131.262 23.9067 132.035 23.4C132.808 22.8933 133.368 22.2133 133.715 21.36V20.68C133.288 20.36 132.688 20.1067 131.915 19.92C131.168 19.7333 130.368 19.64 129.515 19.64H126.995C126.355 19.64 125.835 19.8 125.435 20.12C125.035 20.44 124.835 20.8667 124.835 21.4V22.44C124.835 22.9467 125.048 23.36 125.475 23.68C125.928 24 126.515 24.16 127.235 24.16H129.395Z" fill="#555555"/>
<path d="M141.06 25.28L155.9 4.72H141.78V-1.90735e-06H163.54V2.72L148.62 23.28H163.14V28H141.06V25.28ZM172.798 28.32C171.118 28.32 169.624 28 168.318 27.36C167.038 26.6933 166.038 25.76 165.318 24.56C164.624 23.36 164.278 21.9733 164.278 20.4V15.72C164.278 14.1467 164.638 12.76 165.358 11.56C166.078 10.3333 167.078 9.38667 168.358 8.72C169.664 8.05333 171.158 7.72 172.838 7.72H176.438C178.118 7.72 179.598 8.05333 180.878 8.72C182.184 9.38667 183.198 10.3333 183.918 11.56C184.638 12.76 184.998 14.1467 184.998 15.72V20.4C184.998 21.9733 184.638 23.36 183.918 24.56C183.198 25.76 182.184 26.6933 180.878 27.36C179.598 28 178.104 28.32 176.398 28.32H172.798ZM176.318 23.64C177.304 23.64 178.091 23.3067 178.678 22.64C179.264 21.9467 179.558 21.0533 179.558 19.96V16.08C179.558 14.9867 179.264 14.1067 178.678 13.44C178.091 12.7467 177.318 12.4 176.358 12.4H172.918C171.958 12.4 171.184 12.7467 170.598 13.44C170.011 14.1067 169.718 14.9867 169.718 16.08V19.96C169.718 21.0533 170.011 21.9467 170.598 22.64C171.184 23.3067 171.944 23.64 172.878 23.64H176.318ZM188.828 8.04H193.868V10.44C194.454 9.61333 195.214 8.96 196.148 8.48C197.081 7.97333 198.014 7.72 198.948 7.72H201.348C203.481 7.72 205.188 8.38667 206.468 9.72C207.774 11.0533 208.428 12.8133 208.428 15V28H202.988V15.2C202.988 14.3733 202.761 13.7067 202.308 13.2C201.881 12.6933 201.321 12.44 200.628 12.44H198.228C197.294 12.44 196.454 12.7867 195.708 13.48C194.988 14.1467 194.508 15.0267 194.268 16.12V28H188.828V8.04ZM220.572 28.32C218.892 28.32 217.399 28.0133 216.092 27.4C214.812 26.76 213.812 25.88 213.092 24.76C212.372 23.6133 212.012 22.3067 212.012 20.84V15.68C212.012 14.1067 212.372 12.72 213.092 11.52C213.812 10.32 214.812 9.38667 216.092 8.72C217.399 8.05333 218.892 7.72 220.572 7.72H223.772C226.332 7.72 228.386 8.44 229.932 9.88C231.479 11.32 232.252 13.24 232.252 15.64V19.88H217.452V20.84C217.452 21.72 217.732 22.4267 218.292 22.96C218.852 23.4933 219.612 23.76 220.572 23.76H223.692C224.626 23.76 225.372 23.56 225.932 23.16C226.519 22.7333 226.812 22.1867 226.812 21.52H232.172C232.172 22.8533 231.812 24.04 231.092 25.08C230.372 26.12 229.359 26.92 228.052 27.48C226.772 28.04 225.292 28.32 223.612 28.32H220.572ZM226.892 15.96V15.64C226.892 14.6 226.612 13.7733 226.052 13.16C225.492 12.52 224.746 12.2 223.812 12.2H220.572C219.612 12.2 218.839 12.5333 218.252 13.2C217.666 13.8667 217.372 14.7467 217.372 15.84V15.96H226.892Z" fill="#155DFF"/>
</svg>
