<svg width="209" height="27" viewBox="0 0 209 27" fill="none" xmlns="http://www.w3.org/2000/svg">
<path d="M0.376531 0.799998H4.80453L13.0485 15.776L21.1125 0.799998H25.5405V26H20.6805V10.052L15.3885 19.628C15.0285 20.276 14.6565 20.744 14.2725 21.032C13.9125 21.296 13.4925 21.428 13.0125 21.428H11.6445L5.23653 10.052V26H0.376531V0.799998ZM36.8173 26.288C35.3053 26.288 33.9613 26 32.7853 25.424C31.6333 24.824 30.7333 23.984 30.0853 22.904C29.4613 21.824 29.1493 20.576 29.1493 19.16V14.948C29.1493 13.532 29.4733 12.284 30.1213 11.204C30.7693 10.1 31.6693 9.248 32.8213 8.648C33.9973 8.048 35.3413 7.748 36.8533 7.748H40.0933C41.6053 7.748 42.9373 8.048 44.0893 8.648C45.2653 9.248 46.1773 10.1 46.8253 11.204C47.4733 12.284 47.7973 13.532 47.7973 14.948V19.16C47.7973 20.576 47.4733 21.824 46.8253 22.904C46.1773 23.984 45.2653 24.824 44.0893 25.424C42.9373 26 41.5933 26.288 40.0573 26.288H36.8173ZM39.9853 22.076C40.8733 22.076 41.5813 21.776 42.1093 21.176C42.6373 20.552 42.9013 19.748 42.9013 18.764V15.272C42.9013 14.288 42.6373 13.496 42.1093 12.896C41.5813 12.272 40.8853 11.96 40.0213 11.96H36.9253C36.0613 11.96 35.3653 12.272 34.8373 12.896C34.3093 13.496 34.0453 14.288 34.0453 15.272V18.764C34.0453 19.748 34.3093 20.552 34.8373 21.176C35.3653 21.776 36.0493 22.076 36.8893 22.076H39.9853ZM51.2443 8.036H55.7803V10.196C56.3083 9.452 56.9923 8.864 57.8323 8.432C58.6723 7.976 59.5123 7.748 60.3523 7.748H62.5123C64.4323 7.748 65.9683 8.348 67.1203 9.548C68.2963 10.748 68.8843 12.332 68.8843 14.3V26H63.9883V14.48C63.9883 13.736 63.7843 13.136 63.3763 12.68C62.9923 12.224 62.4883 11.996 61.8643 11.996H59.7043C58.8643 11.996 58.1083 12.308 57.4363 12.932C56.7883 13.532 56.3563 14.324 56.1403 15.308V26H51.2443V8.036ZM79.8142 26.288C78.3022 26.288 76.9582 26.012 75.7822 25.46C74.6302 24.884 73.7302 24.092 73.0822 23.084C72.4342 22.052 72.1102 20.876 72.1102 19.556V14.912C72.1102 13.496 72.4342 12.248 73.0822 11.168C73.7302 10.088 74.6302 9.248 75.7822 8.648C76.9582 8.048 78.3022 7.748 79.8142 7.748H82.6942C84.9982 7.748 86.8462 8.396 88.2382 9.692C89.6302 10.988 90.3262 12.716 90.3262 14.876V18.692H77.0062V19.556C77.0062 20.348 77.2582 20.984 77.7622 21.464C78.2662 21.944 78.9502 22.184 79.8142 22.184H82.6222C83.4622 22.184 84.1342 22.004 84.6382 21.644C85.1662 21.26 85.4302 20.768 85.4302 20.168H90.2542C90.2542 21.368 89.9302 22.436 89.2822 23.372C88.6342 24.308 87.7222 25.028 86.5462 25.532C85.3942 26.036 84.0622 26.288 82.5502 26.288H79.8142ZM85.5022 15.164V14.876C85.5022 13.94 85.2502 13.196 84.7462 12.644C84.2422 12.068 83.5702 11.78 82.7302 11.78H79.8142C78.9502 11.78 78.2542 12.08 77.7262 12.68C77.1982 13.28 76.9342 14.072 76.9342 15.056V15.164H85.5022ZM101.28 26C99.1678 26 97.6198 25.52 96.6357 24.56C95.6518 23.6 95.1598 22.112 95.1598 20.096V12.212H91.9918V8.036H95.3038V2.6H100.056V8.036H104.736V12.212H100.056V19.88C100.056 20.552 100.176 21.044 100.416 21.356C100.68 21.668 101.088 21.824 101.64 21.824H104.736V26H101.28ZM113.464 26.288C111.592 26.288 110.08 25.82 108.928 24.884C107.776 23.948 107.2 22.712 107.2 21.176V19.844C107.2 18.332 107.8 17.12 109 16.208C110.2 15.272 111.784 14.804 113.752 14.804H115.948C116.572 14.804 117.244 14.888 117.964 15.056C118.684 15.224 119.344 15.452 119.944 15.74V13.868C119.944 13.268 119.74 12.788 119.332 12.428C118.948 12.044 118.432 11.852 117.784 11.852H114.688C114.016 11.852 113.476 12.008 113.068 12.32C112.66 12.632 112.456 13.052 112.456 13.58H107.704C107.704 11.828 108.34 10.424 109.612 9.368C110.908 8.288 112.6 7.748 114.688 7.748H117.784C119.896 7.748 121.6 8.312 122.896 9.44C124.192 10.544 124.84 12.02 124.84 13.868V26H120.304V23.84C119.728 24.584 119.02 25.184 118.18 25.64C117.34 26.072 116.512 26.288 115.696 26.288H113.464ZM116.056 22.544C116.944 22.544 117.736 22.316 118.432 21.86C119.128 21.404 119.632 20.792 119.944 20.024V19.412C119.56 19.124 119.02 18.896 118.324 18.728C117.652 18.56 116.932 18.476 116.164 18.476H113.896C113.32 18.476 112.852 18.62 112.492 18.908C112.132 19.196 111.952 19.58 111.952 20.06V20.996C111.952 21.452 112.144 21.824 112.528 22.112C112.936 22.4 113.464 22.544 114.112 22.544H116.056Z" fill="#1B1B1B"/>
<path d="M126.554 23.552L139.91 5.048H127.202V0.799998H146.786V3.248L133.358 21.752H146.426V26H126.554V23.552ZM155.118 26.288C153.606 26.288 152.262 26 151.086 25.424C149.934 24.824 149.034 23.984 148.386 22.904C147.762 21.824 147.45 20.576 147.45 19.16V14.948C147.45 13.532 147.774 12.284 148.422 11.204C149.07 10.1 149.97 9.248 151.122 8.648C152.298 8.048 153.642 7.748 155.154 7.748H158.394C159.906 7.748 161.238 8.048 162.39 8.648C163.566 9.248 164.478 10.1 165.126 11.204C165.774 12.284 166.098 13.532 166.098 14.948V19.16C166.098 20.576 165.774 21.824 165.126 22.904C164.478 23.984 163.566 24.824 162.39 25.424C161.238 26 159.894 26.288 158.358 26.288H155.118ZM158.286 22.076C159.174 22.076 159.882 21.776 160.41 21.176C160.938 20.552 161.202 19.748 161.202 18.764V15.272C161.202 14.288 160.938 13.496 160.41 12.896C159.882 12.272 159.186 11.96 158.322 11.96H155.226C154.362 11.96 153.666 12.272 153.138 12.896C152.61 13.496 152.346 14.288 152.346 15.272V18.764C152.346 19.748 152.61 20.552 153.138 21.176C153.666 21.776 154.35 22.076 155.19 22.076H158.286ZM169.545 8.036H174.081V10.196C174.609 9.452 175.293 8.864 176.133 8.432C176.973 7.976 177.813 7.748 178.653 7.748H180.813C182.733 7.748 184.269 8.348 185.421 9.548C186.597 10.748 187.185 12.332 187.185 14.3V26H182.289V14.48C182.289 13.736 182.085 13.136 181.677 12.68C181.293 12.224 180.789 11.996 180.165 11.996H178.005C177.165 11.996 176.409 12.308 175.737 12.932C175.089 13.532 174.657 14.324 174.441 15.308V26H169.545V8.036ZM198.115 26.288C196.603 26.288 195.259 26.012 194.083 25.46C192.931 24.884 192.031 24.092 191.383 23.084C190.735 22.052 190.411 20.876 190.411 19.556V14.912C190.411 13.496 190.735 12.248 191.383 11.168C192.031 10.088 192.931 9.248 194.083 8.648C195.259 8.048 196.603 7.748 198.115 7.748H200.995C203.299 7.748 205.147 8.396 206.539 9.692C207.931 10.988 208.627 12.716 208.627 14.876V18.692H195.307V19.556C195.307 20.348 195.559 20.984 196.063 21.464C196.567 21.944 197.251 22.184 198.115 22.184H200.923C201.763 22.184 202.435 22.004 202.939 21.644C203.467 21.26 203.731 20.768 203.731 20.168H208.555C208.555 21.368 208.231 22.436 207.583 23.372C206.935 24.308 206.023 25.028 204.847 25.532C203.695 26.036 202.363 26.288 200.851 26.288H198.115ZM203.803 15.164V14.876C203.803 13.94 203.551 13.196 203.047 12.644C202.543 12.068 201.871 11.78 201.031 11.78H198.115C197.251 11.78 196.555 12.08 196.027 12.68C195.499 13.28 195.235 14.072 195.235 15.056V15.164H203.803Z" fill="#155DFF"/>
</svg>
