<svg xmlns="http://www.w3.org/2000/svg" version="1.1" xmlns:xlink="http://www.w3.org/1999/xlink" xmlns:svgjs="http://svgjs.dev/svgjs" width="230" height="230"><svg width="230" height="230" viewBox="0 0 230 230" fill="none" xmlns="http://www.w3.org/2000/svg">
<g clip-path="url(#clip0_1_1595)">
<path d="M152.071 0H77.9288C34.8899 0 0 34.8899 0 77.9288V152.071C0 195.11 34.8899 230 77.9288 230H152.071C195.11 230 230 195.11 230 152.071V77.9288C230 34.8899 195.11 0 152.071 0Z" fill="#155DFF"></path>
<path d="M94.5095 113.695C95.0462 114.009 95.5799 114.31 96.1078 114.609C97.9062 113.263 99.7654 111.935 101.677 110.629C100.334 109.89 98.9736 109.127 97.6103 108.338C85.8976 101.577 75.496 94.1161 68.3257 87.3287C60.2504 79.6856 57.2715 73.8786 59.476 70.0614C61.6805 66.2471 68.201 65.9222 78.855 69.0955C88.3196 71.9149 99.983 77.194 111.693 83.9582C117.955 87.5724 123.811 91.3693 129.131 95.2561C131.234 94.3163 133.325 93.4403 135.394 92.6281C129.23 87.6565 122.315 82.9459 114.782 78.5921C100.447 70.3167 85.8512 64.5299 73.6832 62.3023C62.4056 60.237 54.5217 61.5075 52.0504 65.7859C49.582 70.0643 52.4246 77.5247 59.8531 86.2555C67.8646 95.6738 80.1747 105.423 94.5124 113.698L94.5095 113.695Z" fill="white"></path>
<path d="M74.1483 125.252L77.9278 118.708L81.6406 120.851L77.7421 127.601C78.4499 128.051 79.1605 128.497 79.8799 128.938C83.4738 125.086 87.7057 121.22 92.4337 117.446C92.4076 117.432 92.3844 117.417 92.3612 117.403C77.6174 108.889 64.9099 98.8097 56.5851 89.0259C51.802 83.4046 48.7593 78.1777 47.5294 73.6063C45.6063 76.9391 43.6803 80.2748 41.7514 83.6105C39.8863 86.8389 41.0785 91.9411 45.0059 98.0265L48.2546 92.3965L51.9673 94.54L47.7412 101.861C48.0921 102.311 48.4547 102.766 48.8318 103.222C51.5671 106.543 54.8679 109.925 58.6271 113.284L62.308 106.902L66.0237 109.046L61.9338 116.135C65.664 119.239 69.7626 122.302 74.1483 125.249V125.252Z" fill="white"></path>
<path d="M77.6167 73.1983C67.482 70.1788 63.7373 71.2259 63.1746 72.2005C62.6119 73.1751 63.5778 76.9372 71.2586 84.2061C78.1939 90.7702 88.3113 98.0188 99.7426 104.618C101.758 105.781 103.76 106.892 105.715 107.936C108.099 106.402 110.553 104.905 113.068 103.455C116.923 101.227 120.804 99.1791 124.656 97.3198C119.983 94.0073 114.916 90.7673 109.535 87.6637C98.1037 81.0619 86.7681 75.9249 77.6167 73.1983Z" fill="white"></path>
<path d="M94.3854 158.564C106.551 156.336 121.144 150.553 135.481 142.274C149.822 133.993 162.132 124.244 170.144 114.823C177.569 106.092 180.412 98.6288 177.943 94.3534C176.249 91.4237 172.014 89.9038 165.891 89.9038C163.078 89.9038 159.867 90.2229 156.316 90.8755C144.154 93.1061 129.558 98.8928 115.22 107.171C100.88 115.449 88.5697 125.196 80.5582 134.614C73.1327 143.345 70.2901 150.805 72.7585 155.083C75.2269 159.362 83.1107 160.629 94.3854 158.567V158.564ZM80.1724 150.802C77.968 146.988 80.9469 141.178 89.0222 133.535C96.1954 126.747 106.597 119.287 118.31 112.526C130.022 105.764 141.683 100.488 151.147 97.6716C161.801 94.4984 168.322 94.8204 170.526 98.6318C172.731 102.449 169.752 108.256 161.677 115.902C154.506 122.689 144.105 130.153 132.389 136.92C120.677 143.681 109.013 148.957 99.5485 151.774C94.7132 153.212 90.7306 153.932 87.6154 153.932C83.8649 153.932 81.3733 152.888 80.1695 150.805L80.1724 150.802Z" fill="white"></path>
<path d="M130.244 133.208C141.675 126.604 151.793 119.352 158.728 112.788C166.409 105.519 167.375 101.754 166.812 100.779C166.531 100.292 165.443 99.7845 163.149 99.7845C160.854 99.7845 157.414 100.281 152.37 101.783C143.216 104.51 131.88 109.644 120.452 116.243C109.02 122.841 98.906 130.09 91.9677 136.654C84.284 143.923 83.321 147.688 83.8837 148.66C84.4464 149.634 88.1882 150.679 98.3259 147.662C107.477 144.938 118.813 139.801 130.244 133.202V133.208Z" fill="white"></path>
<path d="M184.983 126.597C188.913 120.514 190.105 115.427 188.228 112.181L184.548 105.803C183.851 104.596 183.152 103.386 182.453 102.177C181.226 106.748 178.181 111.978 173.401 117.599C165.079 127.386 152.371 137.466 137.616 145.988C122.866 154.504 107.783 160.467 95.1479 162.782C91.4091 163.467 87.9892 163.806 84.9262 163.806C82.0459 163.806 79.4846 163.504 77.2715 162.913C79.1946 166.245 81.1148 169.581 83.0437 172.908C84.9204 176.157 89.9181 177.671 97.1465 177.308L93.8949 171.678L97.6077 169.535L101.834 176.853C102.753 176.725 103.699 176.572 104.671 176.395C108.613 175.672 112.813 174.576 117.175 173.14L113.488 166.756L117.201 164.612L121.297 171.704C125.857 170.025 130.556 168.006 135.298 165.686L131.516 159.136L135.229 156.992L139.13 163.748C141.34 162.594 143.556 161.378 145.764 160.105C147.974 158.829 150.135 157.518 152.241 156.18L148.339 149.425L152.052 147.281L155.834 153.831C160.22 150.884 164.319 147.821 168.052 144.711L163.953 137.619L167.666 135.473L171.356 141.86C174.778 138.8 177.827 135.711 180.423 132.659C181.061 131.908 181.664 131.165 182.236 130.435L178.015 123.113L181.731 120.973L184.98 126.603L184.983 126.597Z" fill="white"></path>
</g>
<defs>
<clipPath id="SvgjsClipPath1015">
<rect width="230" height="230" fill="white"></rect>
</clipPath>
</defs>
</svg><style>@media (prefers-color-scheme: light) { :root { filter: none; } }
@media (prefers-color-scheme: dark) { :root { filter: none; } }
</style></svg>