<svg width="38" height="38" viewBox="0 0 38 38" fill="none" xmlns="http://www.w3.org/2000/svg">
<path d="M37.9457 19.0087C37.7572 17.4272 37.0003 16.0084 35.8951 14.986C36.4549 14.2744 36.7917 13.3699 36.7917 12.3702V9.55542C36.7917 9.32336 36.7843 9.09279 36.7694 8.8637C36.3491 2.37072 29.7564 -1.76007 23.8924 0.737118C23.8107 0.772145 23.8107 0.772145 23.7515 0.798342C22.2613 1.43544 20.6362 1.76783 19.0001 1.76783C17.364 1.76783 15.739 1.43544 14.2163 0.784019C8.24395 -1.76 1.65122 2.37079 1.23089 8.86422C1.21605 9.09279 1.20855 9.32336 1.20855 9.55542V12.3703C1.20855 13.3703 1.54562 14.275 2.10435 14.9869C0.999726 16.0093 0.243 17.428 0.0545053 19.0096C-0.329312 22.2159 1.85909 25.563 4.75167 26.6007V31.0849C4.75167 32.9292 6.16857 34.4751 7.91801 34.7787V36.4169C7.91801 37.2913 8.6268 38.0001 9.50115 38.0001C10.3755 38.0001 11.0843 37.2913 11.0843 36.4169V34.8338H19.0001H26.9159V36.4169C26.9159 37.2913 27.6247 38.0001 28.4991 38.0001C29.3734 38.0001 30.0822 37.2913 30.0822 36.4169V34.7787C31.8316 34.4751 33.2486 32.9292 33.2486 31.0849V26.6007C36.1412 25.563 38.3296 22.2158 37.9457 19.0087ZM4.3749 12.3703V9.55542C4.3749 9.39171 4.38009 9.22963 4.39056 9.06926C4.67078 4.74086 9.02353 2.01347 12.8673 3.65033C14.8876 4.51511 16.9363 4.93417 19.0001 4.93417C21.0639 4.93417 23.1126 4.51511 25.0293 3.69523C25.1087 3.66124 25.1087 3.66124 25.1678 3.63504C28.9768 2.01354 33.3295 4.74086 33.6097 9.06882C33.6201 9.22971 33.6253 9.39178 33.6253 9.55549V12.3704C33.6253 13.0149 33.1155 13.4678 32.5265 13.3931C32.5248 13.3929 32.5233 13.3928 32.5217 13.3926C32.5081 13.3909 32.4949 13.3885 32.4813 13.3869C28.6559 12.9316 25.9592 14.8377 25.4286 19.0024H12.5716C12.041 14.8377 9.34434 12.9316 5.5193 13.3869C4.8848 13.4677 4.3749 13.0147 4.3749 12.3703ZM12.668 22.1685H25.3333V24.8282C25.3333 25.108 25.1065 25.3348 24.8267 25.3348H13.173C12.8948 25.3348 12.668 25.108 12.668 24.8282V22.1685ZM31.556 23.7554C30.7261 23.8129 30.0823 24.5029 30.0823 25.3348V31.0848C30.0823 31.3632 29.7639 31.6674 29.4569 31.6674H19.0002H8.54338C8.23638 31.6674 7.91801 31.3632 7.91801 31.0848V25.3348C7.91801 24.5029 7.27423 23.813 6.44434 23.7555C4.72042 23.636 2.96141 21.3653 3.19844 19.3851C3.37499 17.904 4.51827 16.7091 5.86757 16.5346C5.8692 16.5344 5.87084 16.5343 5.87247 16.5341C8.13033 16.2646 9.48794 17.481 9.5007 20.5422C9.50078 20.5568 9.50122 20.5707 9.50122 20.5853C9.50122 20.5856 9.50122 20.5858 9.50122 20.5859C9.5013 20.6063 9.50137 20.6197 9.50167 20.6339V24.8282C9.50167 26.8562 11.1457 28.5011 13.173 28.5011H24.8267C26.8552 28.5011 28.4996 26.8567 28.4996 24.8282V20.5853C28.4996 20.5829 28.4992 20.5805 28.4992 20.5781C28.5046 17.4872 29.8637 16.2638 32.1068 16.5308C33.4672 16.6931 34.6242 17.8942 34.8017 19.3842C35.0389 21.3652 33.2799 23.6359 31.556 23.7554Z" fill="#155DFF"/>
</svg>
