<svg width="33" height="33" viewBox="0 0 33 33" fill="none" xmlns="http://www.w3.org/2000/svg">
<path d="M16.5 30.25C14.5979 30.25 12.8104 29.8891 11.1375 29.1672C9.46458 28.4453 8.00938 27.4656 6.77187 26.2281C5.53437 24.9906 4.55469 23.5354 3.83281 21.8625C3.11094 20.1896 2.75 18.4021 2.75 16.5C2.75 14.5979 3.11094 12.8104 3.83281 11.1375C4.55469 9.46458 5.53437 8.00938 6.77187 6.77187C8.00938 5.53437 9.46458 4.55469 11.1375 3.83281C12.8104 3.11094 14.5979 2.75 16.5 2.75C18.4021 2.75 20.1896 3.11094 21.8625 3.83281C23.5354 4.55469 24.9906 5.53437 26.2281 6.77187C27.4656 8.00938 28.4453 9.46458 29.1672 11.1375C29.8891 12.8104 30.25 14.5979 30.25 16.5C30.25 18.4021 29.8891 20.1896 29.1672 21.8625C28.4453 23.5354 27.4656 24.9906 26.2281 26.2281C24.9906 27.4656 23.5354 28.4453 21.8625 29.1672C20.1896 29.8891 18.4021 30.25 16.5 30.25ZM16.5 27.5C19.5708 27.5 22.1719 26.4344 24.3031 24.3031C26.4344 22.1719 27.5 19.5708 27.5 16.5C27.5 16.3396 27.4943 16.1734 27.4828 16.0016C27.4714 15.8297 27.4656 15.6865 27.4656 15.5719C27.351 16.2365 27.0417 16.7865 26.5375 17.2219C26.0333 17.6573 25.4375 17.875 24.75 17.875H22C21.2437 17.875 20.5964 17.6057 20.0578 17.0672C19.5193 16.5286 19.25 15.8813 19.25 15.125V13.75H13.75V11C13.75 10.2438 14.0193 9.59635 14.5578 9.05781C15.0964 8.51927 15.7438 8.25 16.5 8.25H17.875C17.875 7.72292 18.0182 7.25885 18.3047 6.85781C18.5911 6.45677 18.9406 6.13021 19.3531 5.87812C18.8948 5.76354 18.4307 5.67188 17.9609 5.60313C17.4911 5.53437 17.0042 5.5 16.5 5.5C13.4292 5.5 10.8281 6.56563 8.69688 8.69688C6.56563 10.8281 5.5 13.4292 5.5 16.5H12.375C13.8875 16.5 15.1823 17.0385 16.2594 18.1156C17.3365 19.1927 17.875 20.4875 17.875 22V23.375H13.75V27.1562C14.2083 27.2708 14.6609 27.3568 15.1078 27.4141C15.5547 27.4714 16.0188 27.5 16.5 27.5Z" fill="#155DFF"/>
</svg>
