<svg width="36" height="36" viewBox="0 0 36 36" fill="none" xmlns="http://www.w3.org/2000/svg">
<g clip-path="url(#clip0_1_1450)">
<path d="M27.1268 6.7251C24.2464 6.8133 24.2472 10.9573 27.1268 11.0451C30.0072 10.9569 30.0064 6.81294 27.1268 6.7251Z" fill="#155DFF"/>
<path d="M17.9994 9.36035C13.2276 9.36035 9.35938 13.239 9.35938 18.0234C9.81442 29.5146 26.1858 29.5113 26.6394 18.0234C26.6394 13.239 22.7712 9.36035 17.9994 9.36035ZM17.9994 23.6466C14.9019 23.6466 12.3909 21.1291 12.3909 18.0234C12.6865 10.5642 23.3137 10.5664 23.6078 18.0234C23.6078 21.1288 21.0968 23.6466 17.9994 23.6466Z" fill="#155DFF"/>
<path d="M34.9945 10.9518C34.8678 4.95093 31.0503 1.13097 25.0488 1.00569C23.6077 0.866733 12.3922 0.863853 10.9501 1.00569C4.94996 1.13205 1.13036 4.94985 1.00472 10.9518C0.865757 12.3911 0.862877 23.6108 1.00472 25.0512C1.11668 31.0326 4.96868 34.8857 10.9501 34.9973C12.7738 35.0804 13.356 35.1002 17.9996 35.1002C22.6429 35.1002 23.2254 35.0804 25.0488 34.9973C26.8686 34.9141 28.1116 34.625 29.1992 34.2024C33.0105 32.6799 34.8728 29.2931 34.9945 25.0512C35.1334 23.6101 35.136 12.3936 34.9945 10.9518ZM24.9084 31.9196C23.4903 32.055 12.5096 32.0571 11.0905 31.9196C9.42368 31.8437 8.51828 31.565 7.91564 31.331C2.714 28.9183 4.3268 24.0385 4.08164 17.3411C4.08704 15.7855 4.0784 12.6477 4.082 11.0922C4.28972 6.45429 6.47384 4.30725 11.0905 4.08297C12.5103 3.94725 23.4882 3.94545 24.9084 4.08297C29.5473 4.29069 31.6922 6.47481 31.9168 11.0918C32.0086 12.2003 32.0752 18.2515 31.9168 21.314C32.0878 27.0661 31.8258 31.5823 24.9084 31.9196Z" fill="#155DFF"/>
</g>
<defs>
<clipPath id="clip0_1_1450">
<rect width="36" height="36" fill="white"/>
</clipPath>
</defs>
</svg>
