<svg width="38" height="38" viewBox="0 0 38 38" fill="none" xmlns="http://www.w3.org/2000/svg">
<path d="M36.7508 18.6248L32.0007 4.37475C31.8393 3.89025 31.3856 3.5625 30.875 3.5625H22.344C21.8524 2.18381 20.5461 1.1875 19 1.1875C17.4539 1.1875 16.1476 2.18381 15.656 3.5625H7.125C6.61319 3.5625 6.15956 3.88906 5.99925 4.37475L1.24925 18.6248C1.20888 18.7471 1.1875 18.8729 1.1875 19C1.1875 22.2739 3.85106 24.9375 7.125 24.9375C10.3989 24.9375 13.0625 22.2739 13.0625 19C13.0625 18.8729 13.0411 18.7459 13.0007 18.6248L8.77206 5.9375H15.656C16.0146 6.94331 16.8067 7.73537 17.8125 8.094V30.875H14.8438C13.2062 30.875 11.875 32.2062 11.875 33.8438C11.875 35.4813 13.2062 36.8125 14.8438 36.8125H23.1562C24.7938 36.8125 26.125 35.4813 26.125 33.8438C26.125 32.2062 24.7938 30.875 23.1562 30.875H20.1875V8.094C21.1933 7.73537 21.9854 6.94331 22.344 5.9375H29.2279L24.9993 18.6248C24.9589 18.7471 24.9375 18.8729 24.9375 19C24.9375 22.2739 27.6011 24.9375 30.875 24.9375C34.1489 24.9375 36.8125 22.2739 36.8125 19C36.8125 18.8729 36.7911 18.7459 36.7508 18.6248ZM7.125 22.5625C5.57888 22.5625 4.275 21.5662 3.78338 20.1875H10.4666C9.975 21.5662 8.67112 22.5625 7.125 22.5625ZM10.2268 17.8125H4.02325L7.125 8.50488L10.2268 17.8125ZM23.1562 33.25C23.4828 33.25 23.75 33.5172 23.75 33.8438C23.75 34.1703 23.4828 34.4375 23.1562 34.4375H14.8438C14.5172 34.4375 14.25 34.1703 14.25 33.8438C14.25 33.5172 14.5172 33.25 14.8438 33.25H23.1562ZM19 5.9375C18.3445 5.9375 17.8125 5.4055 17.8125 4.75C17.8125 4.0945 18.3445 3.5625 19 3.5625C19.6555 3.5625 20.1875 4.0945 20.1875 4.75C20.1875 5.4055 19.6555 5.9375 19 5.9375ZM30.875 8.50488L33.9767 17.8125H27.7721L30.875 8.50488ZM30.875 22.5625C29.3289 22.5625 28.025 21.5662 27.5334 20.1875H34.2166C33.725 21.5662 32.4211 22.5625 30.875 22.5625Z" fill="#155DFF"/>
</svg>
