<svg width="39" height="36" viewBox="0 0 39 36" fill="none" xmlns="http://www.w3.org/2000/svg">
<path d="M30.0625 14.625C29.1639 14.625 28.4375 13.897 28.4375 13V9.75H25.1875C24.2889 9.75 23.5625 9.022 23.5625 8.125C23.5625 7.228 24.2889 6.5 25.1875 6.5H30.0625C30.9611 6.5 31.6875 7.228 31.6875 8.125V13C31.6875 13.897 30.9611 14.625 30.0625 14.625Z" fill="#155DFF"/>
<path d="M32.5 27.625H6.5C2.91525 27.625 0 24.7097 0 21.125V6.5C0 2.91525 2.91525 0 6.5 0H32.5C36.0848 0 39 2.91525 39 6.5V21.125C39 24.7097 36.0848 27.625 32.5 27.625ZM6.5 3.25C4.70762 3.25 3.25 4.70762 3.25 6.5V21.125C3.25 22.9174 4.70762 24.375 6.5 24.375H32.5C34.2924 24.375 35.75 22.9174 35.75 21.125V6.5C35.75 4.70762 34.2924 3.25 32.5 3.25H6.5Z" fill="#155DFF"/>
<path d="M14.6269 35.7493C14.5213 35.7493 14.4124 35.7395 14.3052 35.7168C13.4244 35.5396 12.854 34.6816 13.0328 33.8025L14.6578 25.7393C14.8349 24.8601 15.6913 24.293 16.572 24.4669C17.4528 24.644 18.0231 25.502 17.8444 26.3811L16.2194 34.4444C16.0634 35.2163 15.3858 35.7493 14.6269 35.7493Z" fill="#155DFF"/>
<path d="M24.3726 35.7504C23.6137 35.7504 22.9345 35.2158 22.7817 34.4439L21.1567 26.3189C20.9812 25.4381 21.5516 24.5834 22.4307 24.4063C23.3212 24.2324 24.1678 24.8011 24.3433 25.6803L25.9683 33.8053C26.1438 34.686 25.5735 35.5408 24.6943 35.7179C24.5855 35.7406 24.4766 35.7504 24.3726 35.7504Z" fill="#155DFF"/>
<path d="M27.625 35.75H11.375C10.4764 35.75 9.75 35.022 9.75 34.125C9.75 33.228 10.4764 32.5 11.375 32.5H27.625C28.5236 32.5 29.25 33.228 29.25 34.125C29.25 35.022 28.5236 35.75 27.625 35.75Z" fill="#155DFF"/>
<path d="M8.93791 21.1254C8.52191 21.1254 8.10591 20.9662 7.78903 20.6493C7.15366 20.0139 7.15366 18.9869 7.78903 18.3515L13.9527 12.1879C15.2185 10.9204 17.2823 10.9204 18.5482 12.1879L21.1254 14.7652L28.914 6.97653C29.5494 6.34116 30.5764 6.34116 31.2118 6.97653C31.8472 7.61191 31.8472 8.63891 31.2118 9.27428L23.4232 17.0629C22.1573 18.3304 20.0935 18.3304 18.8277 17.0629L16.2504 14.4857L10.0868 20.6493C9.76991 20.9662 9.35391 21.1254 8.93791 21.1254Z" fill="#155DFF"/>
</svg>
