<svg width="37" height="37" viewBox="0 0 37 37" fill="none" xmlns="http://www.w3.org/2000/svg">
<path d="M22.3984 0.75L22.5986 0.754883C23.5937 0.804304 24.5383 1.22186 25.2461 1.92969C26.0009 2.68472 26.4248 3.70872 26.4248 4.77637V5.78516H32.4688C33.5364 5.78516 34.5604 6.20902 35.3154 6.96387C36.0705 7.71894 36.4951 8.7437 36.4951 9.81152V16.7598L36.4893 16.9717C36.4623 17.4642 36.3449 17.9483 36.1426 18.3994C35.927 18.88 35.6182 19.3121 35.2363 19.6738V32.4688C35.2363 33.5366 34.8117 34.5604 34.0566 35.3154C33.3016 36.0705 32.2778 36.4951 31.21 36.4951H6.03516C4.96736 36.4951 3.94354 36.0704 3.18848 35.3154C2.43341 34.5604 2.00879 33.5366 2.00879 32.4688V19.6738C1.62688 19.3121 1.31809 18.8801 1.10254 18.3994C0.871311 17.8838 0.751144 17.3249 0.75 16.7598V9.81152L0.754883 9.61133C0.804313 8.61629 1.22187 7.67168 1.92969 6.96387C2.68472 6.20906 3.70873 5.78516 4.77637 5.78516H10.8203V4.77637C10.8203 3.7087 11.2442 2.68472 11.999 1.92969C12.7541 1.17462 13.7789 0.75 14.8467 0.75H22.3984ZM22.6484 23.9932V24.916C22.6484 25.9838 22.2248 27.0086 21.4697 27.7637C20.7147 28.5187 19.6899 28.9424 18.6221 28.9424C17.5545 28.9423 16.5303 28.5185 15.7754 27.7637C15.0203 27.0086 14.5967 25.9838 14.5967 24.916V23.9932L5.02637 21.0498V32.4688C5.02637 32.7361 5.13237 32.9925 5.32129 33.1816L5.39551 33.249C5.57503 33.3962 5.80101 33.4775 6.03516 33.4775H31.21C31.4775 33.4775 31.7337 33.3708 31.9229 33.1816C32.112 32.9925 32.2188 32.7363 32.2188 32.4688V21.0498L22.6484 23.9932ZM17.6133 24.916C17.6133 25.1836 17.72 25.4407 17.9092 25.6299C18.0982 25.8189 18.3548 25.9247 18.6221 25.9248C18.8896 25.9248 19.1468 25.819 19.3359 25.6299C19.5251 25.4407 19.6309 25.1836 19.6309 24.916V21.3896H17.6133V24.916ZM4.77637 8.80273C4.50883 8.80273 4.25168 8.90848 4.0625 9.09766C3.87337 9.28683 3.76758 9.54402 3.76758 9.81152V16.7197C3.75802 16.9434 3.82265 17.1641 3.95215 17.3467C4.08181 17.5293 4.26901 17.6637 4.4834 17.7285H4.48438L14.5967 20.8018V19.8809C14.5968 19.4809 14.7553 19.0973 15.0381 18.8145C15.321 18.5315 15.7053 18.3721 16.1055 18.3721H21.1396C21.5398 18.3721 21.9241 18.5315 22.207 18.8145C22.4898 19.0973 22.6483 19.4809 22.6484 19.8809V20.8037L32.7617 17.7783C32.9759 17.7136 33.1624 17.5798 33.292 17.3975C33.4216 17.2149 33.487 16.9942 33.4775 16.7705V9.81152C33.4775 9.54399 33.3708 9.28683 33.1816 9.09766C32.9925 8.9087 32.7361 8.80273 32.4688 8.80273H4.77637ZM14.8467 3.76758C14.5792 3.76758 14.322 3.87342 14.1328 4.0625C13.9436 4.25168 13.8379 4.50883 13.8379 4.77637V5.78516H23.4072V4.77637C23.4072 4.50883 23.3015 4.25168 23.1123 4.0625C22.9231 3.87338 22.6659 3.76758 22.3984 3.76758H14.8467Z" fill="#155DFF" stroke="#155DFF" stroke-width="0.5"/>
</svg>
