<svg width="38" height="38" viewBox="0 0 38 38" fill="none" xmlns="http://www.w3.org/2000/svg">
<g clip-path="url(#clip0_1_1660)">
<path d="M33.5448 5.35058C33.3069 5.13905 32.9893 5.0396 32.6741 5.07597C29.6419 5.42776 26.5657 4.74792 23.5313 3.05566C21.2226 1.76796 19.8105 0.347344 19.7979 0.334727C19.5883 0.120234 19.3005 0.000742187 19.0016 0H18.9993C18.7005 0 18.4134 0.120234 18.2037 0.333242C18.1896 0.347344 16.7776 1.76796 14.4688 3.05566C11.4344 4.74792 8.35822 5.42702 5.32601 5.07597C5.00999 5.0396 4.69322 5.13905 4.45528 5.35058C4.21807 5.56136 4.08203 5.86417 4.08203 6.18183V19.4643C4.08203 22.304 4.83602 25.0791 6.26288 27.4898C8.41396 31.1236 12.3095 35.8879 18.6557 37.946C18.8792 38.018 19.1208 38.018 19.3442 37.946C25.6904 35.8878 29.586 31.1236 31.737 27.4898C33.1641 25.0791 33.918 22.304 33.918 19.4643V6.18183C33.918 5.86417 33.782 5.56136 33.5448 5.35058ZM29.4567 19.4643C29.4567 21.5076 28.9169 23.4988 27.8967 25.2244C26.3687 27.805 23.6644 31.2733 19.4529 33.1413C19.1686 33.2683 18.8315 33.2683 18.5472 33.1413C14.3357 31.2733 11.6314 27.805 10.1034 25.2244C9.08326 23.4988 8.54339 21.5076 8.54339 19.4643V10.5202C8.54339 9.96802 8.94863 9.4997 9.49592 9.4188C11.9645 9.05513 14.3944 8.2083 16.7181 6.90279C17.2341 6.61259 17.7539 6.29345 18.2632 5.95427C18.6904 5.6047 19.3151 5.6076 19.7414 5.95724C20.2492 6.29494 20.7675 6.61334 21.282 6.90279C23.6064 8.20904 26.0356 9.05513 28.5042 9.41806C29.0514 9.49822 29.4567 9.96728 29.4567 10.5195V19.4643Z" fill="#155DFF"/>
<path d="M17.8844 20.113V30.281C15.0849 28.568 13.1814 26.0476 12.0245 24.0919C11.3143 22.8918 10.895 21.5276 10.7969 20.113H17.8844Z" fill="#155DFF"/>
<path d="M27.2028 20.113C27.1046 21.5276 26.6852 22.8918 25.9759 24.0919C24.8182 26.0476 22.9147 28.568 20.1152 30.281V20.113H27.2028Z" fill="#155DFF"/>
<path d="M17.885 8.802V17.8864H10.7744V11.4598C13.185 10.9937 15.548 10.1157 17.8129 8.84282C17.8367 8.82946 17.8613 8.81536 17.885 8.802Z" fill="#155DFF"/>
<path d="M27.2258 11.459V17.8864H20.1152V8.80127C20.1391 8.81537 20.1635 8.82947 20.1874 8.84283C22.453 10.1157 24.816 10.9937 27.2258 11.459Z" fill="#155DFF"/>
</g>
<defs>
<clipPath id="clip0_1_1660">
<rect width="38" height="38" fill="white"/>
</clipPath>
</defs>
</svg>
