<svg width="60" height="39" viewBox="0 0 60 39" fill="none" xmlns="http://www.w3.org/2000/svg">
<g clip-path="url(#clip0_1047_740)">
<path d="M60 0H0V39H60V0Z" fill="white"/>
<path d="M24.7767 25.0804C24.764 25.0656 24.7613 25.0033 24.7673 24.8639C24.7719 24.7562 24.7761 24.6285 24.7767 24.5801C24.7784 24.4315 24.749 24.0927 24.7318 24.0612C24.7228 24.0448 24.7154 24.0151 24.7154 23.9951C24.7154 23.9752 24.7025 23.9335 24.6868 23.9024C24.671 23.8714 24.6399 23.8096 24.6177 23.7652C24.5955 23.7208 24.568 23.6679 24.5566 23.6477C24.5298 23.6003 24.3677 23.4422 24.3459 23.4422C24.3367 23.4422 24.3132 23.4257 24.2938 23.4055C24.2743 23.3853 24.2505 23.3688 24.2408 23.3688C24.2311 23.3688 24.2109 23.3556 24.1959 23.3394C24.1809 23.3233 24.1596 23.3101 24.1486 23.3101C24.1375 23.3101 24.1165 23.3004 24.1019 23.2885C24.0391 23.2375 23.9621 23.1909 23.8464 23.134L23.7228 23.0732L23.5678 23.0798C23.4826 23.0834 23.3518 23.0975 23.2773 23.1112C23.2028 23.1248 23.1011 23.1391 23.0514 23.1429C23.0017 23.1467 22.9475 23.1558 22.931 23.1633C22.9144 23.1707 22.8568 23.1797 22.803 23.1833C22.6252 23.1951 22.4206 23.2534 22.359 23.3098C22.3412 23.3261 22.3197 23.3394 22.3111 23.3394C22.3026 23.3394 22.2837 23.3522 22.2692 23.3679C22.2334 23.4065 22.1299 23.4305 21.9672 23.438C21.8926 23.4414 21.8252 23.4504 21.8174 23.4579C21.8095 23.4654 21.7858 23.4717 21.7646 23.4718C21.7435 23.4719 21.696 23.4822 21.6591 23.4948C21.5784 23.5222 21.4417 23.5588 21.3813 23.5693C21.3229 23.5794 21.2129 23.5486 21.1406 23.502C21.1083 23.4812 21.0687 23.4567 21.0526 23.4475C21.0364 23.4383 20.9973 23.4062 20.9658 23.3761C20.9083 23.3214 20.8705 23.2962 20.8004 23.2657C20.7798 23.2567 20.7409 23.2392 20.714 23.2268C20.6752 23.2089 20.6361 23.2062 20.5255 23.2141C20.3386 23.2274 20.2772 23.227 20.2028 23.2123C20.1175 23.1955 20.002 23.0912 20.002 23.031C20.002 22.9664 19.8073 22.8109 19.7264 22.8109C19.7094 22.8109 19.6746 22.8045 19.6492 22.7968C19.6238 22.789 19.5142 22.7556 19.4058 22.7225C19.2973 22.6895 19.1686 22.643 19.1197 22.6192C19.0707 22.5955 19.0225 22.576 19.0124 22.576C19.0023 22.576 18.9699 22.5627 18.9404 22.5466C18.9109 22.5304 18.8767 22.5172 18.8644 22.5172C18.8521 22.5172 18.8303 22.5111 18.8159 22.5037C18.8015 22.4962 18.722 22.4835 18.6392 22.4754C18.5564 22.4672 18.4649 22.4567 18.4359 22.4519C18.4069 22.4472 18.3358 22.4362 18.2778 22.4275C18.1512 22.4086 18.0683 22.3832 17.9899 22.3394C17.9577 22.3215 17.9139 22.2981 17.8924 22.2873C17.871 22.2766 17.8412 22.2546 17.8261 22.2383C17.8111 22.2221 17.7912 22.2089 17.782 22.2089C17.7728 22.2089 17.691 22.1362 17.6001 22.0474C17.5093 21.9585 17.4281 21.8858 17.4197 21.8857C17.4113 21.8857 17.3794 21.8625 17.3489 21.8344C17.3184 21.8062 17.2876 21.7831 17.2805 21.7831C17.2584 21.7831 17.1506 21.6766 17.0947 21.5996C17.0654 21.5592 16.9946 21.4336 16.9374 21.3206C16.8801 21.2075 16.8164 21.0886 16.7958 21.0563C16.7753 21.024 16.7225 20.9296 16.6786 20.8464C16.6072 20.7113 16.5987 20.6855 16.5987 20.6034C16.5987 20.5495 16.5909 20.504 16.5799 20.4932C16.5538 20.4678 16.5542 20.0735 16.5803 20.048C16.6059 20.023 16.6033 19.9314 16.5759 19.8932C16.5543 19.8632 16.4574 19.7932 16.3853 19.7556C16.3368 19.7302 16.1938 19.6993 16.1224 19.6987C15.9461 19.6972 15.8573 19.5975 15.8149 19.3532C15.7964 19.2464 15.7786 19.169 15.7268 18.9714C15.7014 18.8745 15.6805 18.7775 15.6804 18.7557C15.6803 18.734 15.6734 18.7121 15.6651 18.7071C15.6568 18.7021 15.65 18.6855 15.65 18.6701C15.65 18.6285 15.6 18.4834 15.5579 18.4027C15.5506 18.3887 15.5446 18.3643 15.5446 18.3485C15.5446 18.3327 15.5378 18.3157 15.5295 18.3107C15.5213 18.3057 15.5145 18.2628 15.5145 18.2153C15.5145 18.1678 15.5213 18.1248 15.5295 18.1198C15.538 18.1147 15.5446 18.0448 15.5446 17.9602C15.5446 17.805 15.5202 17.7193 15.4627 17.6728C15.4498 17.6623 15.4392 17.6467 15.4392 17.638C15.4392 17.617 15.3627 17.5399 15.3418 17.5399C15.3207 17.5399 15.138 17.3606 15.138 17.3399C15.138 17.3313 15.1248 17.3126 15.1087 17.2984C15.0927 17.2842 15.0752 17.2535 15.0699 17.2302C15.0647 17.2069 15.0541 17.1841 15.0465 17.1795C15.0389 17.1749 15.0326 17.1521 15.0326 17.1288C15.0326 17.1055 15.0258 17.0824 15.0175 17.0774C15.0093 17.0724 15.0024 17.0571 15.0023 17.0435C15.0021 17.017 14.9237 16.8588 14.8921 16.821C14.8817 16.8086 14.8642 16.7786 14.8533 16.7544C14.8423 16.7302 14.8275 16.7004 14.8204 16.6883C14.8134 16.6762 14.7957 16.6432 14.7813 16.6149C14.7669 16.5866 14.7328 16.5249 14.7056 16.4777C14.6784 16.4305 14.6561 16.3826 14.6561 16.3712C14.6561 16.3599 14.6494 16.3506 14.6411 16.3506C14.6328 16.3506 14.626 16.3312 14.626 16.3074C14.626 16.2837 14.6199 16.2606 14.6125 16.2561C14.6051 16.2517 14.5955 16.2232 14.5912 16.1929C14.5737 16.071 14.5102 15.8554 14.482 15.8221C14.469 15.8066 14.4618 15.7071 14.4579 15.4885C14.454 15.2673 14.447 15.1718 14.4338 15.1589C14.4113 15.137 14.4079 14.8885 14.4299 14.8752C14.4556 14.8598 14.5044 14.8961 14.534 14.9526C14.5497 14.9826 14.5768 15.0198 14.5943 15.0352C14.6117 15.0505 14.626 15.0709 14.626 15.0803C14.626 15.0898 14.643 15.113 14.6637 15.132C14.6844 15.1509 14.7013 15.174 14.7013 15.1832C14.7013 15.2022 14.7792 15.2788 14.7986 15.2788C14.8056 15.2788 14.847 15.3102 14.8905 15.3485C14.9912 15.4372 15.1322 15.5431 15.1496 15.5431C15.1569 15.5431 15.1788 15.5596 15.1982 15.5798C15.2177 15.6 15.2413 15.6165 15.2508 15.6165C15.2602 15.6165 15.2874 15.6363 15.3112 15.6605C15.335 15.6848 15.3604 15.7046 15.3677 15.7046C15.375 15.7046 15.4032 15.7211 15.4303 15.7413C15.4575 15.7615 15.4848 15.778 15.4911 15.778C15.4974 15.778 15.5319 15.7973 15.5678 15.8209C15.6568 15.8795 15.706 15.9001 15.8985 15.9596C16.2686 16.0741 16.4005 16.1001 16.6665 16.1113C16.8726 16.1199 17.14 16.0909 17.2268 16.0504C17.2499 16.0396 17.2959 16.0192 17.3291 16.0049C17.389 15.9792 17.6223 15.7703 17.6231 15.7416C17.6234 15.7334 17.6539 15.6948 17.6909 15.656C17.7279 15.6171 17.7582 15.5807 17.7582 15.575C17.7582 15.5694 17.7818 15.5384 17.8107 15.5062C17.8395 15.474 17.8632 15.4423 17.8634 15.4358C17.8635 15.4294 17.884 15.4029 17.9088 15.3771C17.9336 15.3513 17.9539 15.3231 17.9539 15.3144C17.954 15.3057 17.971 15.2831 17.9917 15.2641C18.0124 15.2452 18.0293 15.2219 18.0293 15.2125C18.0293 15.203 18.0429 15.1833 18.0594 15.1687C18.076 15.1541 18.0895 15.134 18.0895 15.1242C18.0895 15.1143 18.0991 15.0985 18.1107 15.0891C18.1223 15.0797 18.1498 15.0376 18.1718 14.9956C18.1937 14.9535 18.2247 14.8993 18.2406 14.875C18.2564 14.8508 18.2936 14.7847 18.3232 14.7282C18.3527 14.6717 18.3893 14.6056 18.4045 14.5814C18.4652 14.4847 18.5413 14.3504 18.5413 14.34C18.5413 14.334 18.5549 14.317 18.5714 14.3024C18.588 14.2878 18.6015 14.2692 18.6015 14.2612C18.6015 14.2531 18.6185 14.2248 18.6392 14.1983C18.6599 14.1719 18.6768 14.1442 18.6768 14.1368C18.6768 14.1295 18.6904 14.1115 18.707 14.0969C18.7235 14.0823 18.7371 14.0627 18.7371 14.0535C18.7371 14.0442 18.7852 13.9907 18.844 13.9346C18.9029 13.8785 18.9684 13.8144 18.9896 13.7922C19.0247 13.7555 19.0378 13.7518 19.1356 13.7518C19.1947 13.7518 19.2495 13.7578 19.2574 13.7652C19.2652 13.7725 19.2972 13.7817 19.3284 13.7856C19.3596 13.7895 19.3949 13.8006 19.4068 13.8102C19.4339 13.8322 19.6122 13.8233 19.6858 13.7963C19.7148 13.7856 19.7784 13.758 19.8272 13.735C19.876 13.712 19.9245 13.6931 19.9351 13.6931C19.9457 13.6931 19.9566 13.6877 19.9593 13.6812C19.9684 13.6597 20.1884 13.5624 20.2655 13.5458C20.3203 13.534 20.3964 13.5339 20.5441 13.5455C20.6559 13.5543 20.8016 13.5641 20.8679 13.5674C21.0393 13.5759 21.1967 13.5984 21.3272 13.6332C21.3893 13.6497 21.4706 13.6709 21.5079 13.6802C21.5452 13.6895 21.6062 13.7102 21.6434 13.7263C21.6807 13.7424 21.7247 13.7607 21.7413 13.767C21.79 13.7856 22.0089 13.884 22.0523 13.9069C22.0743 13.9185 22.1018 13.928 22.1133 13.928C22.1249 13.928 22.1428 13.9363 22.1532 13.9464C22.1635 13.9565 22.1767 13.9653 22.1825 13.966C22.1948 13.9675 22.2346 13.9821 22.2985 14.0087C22.3233 14.019 22.3708 14.0356 22.4039 14.0456C22.437 14.0556 22.4759 14.0696 22.4903 14.0767C22.5047 14.0837 22.5331 14.0895 22.5534 14.0895C22.5737 14.0895 22.5945 14.0961 22.5997 14.1042C22.6052 14.113 22.7049 14.1189 22.8481 14.1189C22.9913 14.1189 23.091 14.1248 23.0966 14.1336C23.1022 14.1424 23.2019 14.1483 23.3451 14.1483C23.4883 14.1483 23.588 14.1424 23.5935 14.1336C23.5987 14.1255 23.633 14.1189 23.6699 14.1189C23.7068 14.1189 23.7488 14.1131 23.7632 14.1059C23.7775 14.0988 23.8096 14.0841 23.8345 14.0733C23.8593 14.0625 23.9154 14.032 23.959 14.0056C24.0027 13.9791 24.0437 13.9574 24.0502 13.9574C24.0567 13.9574 24.085 13.9343 24.1131 13.906C24.1412 13.8777 24.1715 13.8546 24.1805 13.8546C24.2013 13.8546 24.354 13.7047 24.354 13.6844C24.354 13.6761 24.3726 13.6518 24.3954 13.6305C24.4182 13.6092 24.4478 13.57 24.4612 13.5433C24.5482 13.3702 24.6251 13.1767 24.6251 13.1306C24.6251 13.1121 24.6316 13.0907 24.6396 13.0829C24.6475 13.0751 24.6616 13.0193 24.6708 12.9588C24.6801 12.8983 24.6943 12.8273 24.7025 12.801C24.711 12.7738 24.7131 12.7042 24.7073 12.6395C24.6959 12.5119 24.7135 12.4244 24.7603 12.3754C24.777 12.3579 24.7907 12.3393 24.7907 12.3341C24.7907 12.3289 24.8217 12.291 24.8597 12.2499C24.9084 12.1971 24.9264 12.1662 24.9212 12.1449C24.917 12.1283 24.903 12.0784 24.89 12.034C24.877 11.9896 24.8663 11.9334 24.8662 11.9092C24.866 11.8606 24.9028 11.6775 24.9173 11.6545C24.9224 11.6465 24.9269 11.565 24.9274 11.4734C24.9283 11.292 24.9193 11.2623 24.8377 11.1748C24.8119 11.1471 24.7907 11.1189 24.7907 11.1122C24.7907 11.1054 24.7789 11.087 24.7644 11.0714C24.7499 11.0557 24.7125 10.9933 24.6813 10.9328L24.6246 10.8227L24.6248 10.5114C24.625 10.3402 24.6312 10.1849 24.6387 10.1664C24.6604 10.1124 24.687 9.83918 24.6888 9.6518C24.6903 9.49349 24.6927 9.47928 24.7186 9.47928C24.7342 9.47928 24.7651 9.4958 24.7875 9.51598C24.8098 9.53617 24.8366 9.55269 24.847 9.55269C24.8575 9.55269 24.866 9.55854 24.866 9.5657C24.866 9.57285 24.888 9.5896 24.915 9.60292C24.9419 9.61624 24.9944 9.65003 25.0317 9.67801C25.0689 9.70599 25.1096 9.73316 25.122 9.73839C25.1344 9.74362 25.1649 9.76217 25.1898 9.77962C25.2146 9.79706 25.26 9.82268 25.2907 9.83654C25.3214 9.8504 25.3553 9.86991 25.366 9.87989C25.3983 9.90988 25.812 10.1106 25.8415 10.1106C25.8566 10.1106 25.8754 10.1164 25.8832 10.1235C25.9017 10.1401 26.0658 10.1996 26.1198 10.2093C26.1427 10.2134 26.1651 10.2226 26.1697 10.2298C26.1742 10.2369 26.1941 10.2428 26.214 10.2428C26.2338 10.2428 26.2656 10.2487 26.2846 10.256C26.3483 10.2805 26.5746 10.3462 26.6279 10.3558C26.6569 10.361 26.8534 10.3695 27.0646 10.3747C27.431 10.3838 27.5737 10.3988 27.7792 10.45C27.8517 10.4681 27.9582 10.4907 28.0208 10.5014C28.0457 10.5056 28.0796 10.5147 28.0961 10.5216C28.1127 10.5285 28.1534 10.5378 28.1865 10.5422C28.2196 10.5466 28.2942 10.5608 28.3521 10.5738C28.4101 10.5867 28.4846 10.6004 28.5178 10.6044C28.5509 10.6083 28.5916 10.6172 28.6081 10.6242C28.6247 10.6312 28.6721 10.6408 28.7135 10.6457C28.755 10.6505 28.8227 10.6608 28.8641 10.6686C28.9055 10.6763 28.997 10.6901 29.0674 10.6991C29.1378 10.7082 29.209 10.7213 29.2255 10.7282C29.2421 10.735 29.2946 10.7442 29.3422 10.7486C29.3899 10.753 29.4678 10.7602 29.5154 10.7646C29.563 10.769 29.6156 10.7787 29.6321 10.7862C29.6487 10.7936 29.7131 10.8026 29.7752 10.8063C29.8373 10.8099 29.9559 10.8238 30.0387 10.8373C30.1215 10.8508 30.2469 10.8648 30.3173 10.8684C30.3877 10.872 30.4589 10.881 30.4754 10.8884C30.492 10.8958 30.5733 10.9052 30.6561 10.9092C31.0759 10.9298 31.2572 10.9558 31.3726 11.012C31.3994 11.025 31.4367 11.0356 31.4557 11.0356C31.4746 11.0356 31.4943 11.0422 31.4994 11.0503C31.5115 11.0693 31.5777 11.0693 31.5898 11.0503C31.5949 11.0422 31.638 11.0356 31.6855 11.0356C31.7331 11.0356 31.7784 11.0294 31.7863 11.0219C31.7942 11.0144 31.865 11.005 31.9437 11.001C32.1244 10.992 32.3177 10.9708 32.5008 10.9401C32.5795 10.9268 32.6744 10.9127 32.7117 10.9087C32.7489 10.9046 32.793 10.8955 32.8095 10.8884C32.8261 10.8813 32.8735 10.8724 32.915 10.8687C33.0752 10.8542 33.2625 10.8267 33.2875 10.814C33.3018 10.8067 33.4048 10.8007 33.5162 10.8007C33.635 10.8007 33.7227 10.7946 33.7281 10.786C33.7333 10.7779 33.8008 10.7713 33.8787 10.7713C33.9567 10.7713 34.0242 10.7647 34.0293 10.7566C34.0344 10.7486 34.0733 10.742 34.1157 10.742C34.1581 10.742 34.2136 10.7356 34.2391 10.7279C34.2645 10.7202 34.3429 10.7009 34.4133 10.685C34.4837 10.6692 34.617 10.6359 34.7095 10.611C34.8709 10.5677 34.8881 10.5661 35.1386 10.5694C35.3248 10.5719 35.4091 10.5677 35.4326 10.5547C35.4507 10.5446 35.5161 10.5364 35.5785 10.5364C35.6407 10.5364 35.6957 10.5298 35.7008 10.5217C35.706 10.5137 35.7233 10.507 35.7394 10.507C35.7554 10.507 35.7686 10.5004 35.7686 10.4924C35.7686 10.4843 35.7805 10.4772 35.795 10.4766C35.8094 10.476 35.8416 10.4629 35.8665 10.4475C35.8913 10.432 35.9278 10.4125 35.9476 10.4041C35.9674 10.3957 35.9979 10.3763 36.0154 10.361C36.1778 10.2191 36.3106 10.1106 36.3219 10.1106C36.3294 10.1106 36.3515 10.0941 36.371 10.0739C36.3904 10.0537 36.4145 10.0372 36.4244 10.0372C36.4344 10.0372 36.4506 10.0277 36.4605 10.0162C36.4756 9.99843 36.5279 9.96915 36.6872 9.88936C36.7519 9.85694 36.9128 9.7876 36.9234 9.78755C36.9302 9.78751 36.969 9.77099 37.0097 9.75084C37.0505 9.73069 37.092 9.7142 37.102 9.7142C37.1193 9.7142 37.2674 9.65461 37.3232 9.6252C37.3376 9.61762 37.365 9.61142 37.3842 9.61142C37.4034 9.61142 37.4255 9.60577 37.4334 9.59887C37.464 9.57195 37.8188 9.47928 37.8912 9.47928C37.9155 9.47928 37.939 9.47337 37.9436 9.46615C37.9482 9.45892 37.9774 9.44972 38.0085 9.44569C38.0696 9.43778 38.3071 9.38411 38.3824 9.3612C38.4078 9.35347 38.4532 9.34714 38.4831 9.34714C38.5131 9.34714 38.5418 9.34053 38.547 9.33245C38.5521 9.32438 38.5754 9.31777 38.5987 9.31777C38.6221 9.31777 38.6655 9.30786 38.6952 9.29575C38.725 9.28364 38.7796 9.27373 38.8166 9.27373C38.8537 9.27373 38.8882 9.26712 38.8933 9.25904C38.8984 9.25097 38.926 9.24436 38.9546 9.24436C38.9832 9.24436 39.0184 9.23843 39.0328 9.23118C39.0472 9.22393 39.1403 9.19305 39.2397 9.16256C39.339 9.13206 39.4475 9.09595 39.4806 9.08231C39.5368 9.05918 39.6366 9.02054 39.7065 8.99486C39.723 8.98878 39.7705 8.96891 39.8119 8.95071C39.8533 8.93252 39.9007 8.91232 39.9173 8.90583C40.0125 8.86855 40.1664 8.79423 40.2185 8.76034C40.2516 8.7388 40.3038 8.70988 40.3346 8.69607C40.3653 8.68226 40.3949 8.66386 40.4004 8.65518C40.4059 8.64649 40.4316 8.63001 40.4575 8.61854C40.4834 8.60707 40.5351 8.57474 40.5724 8.54669C40.6096 8.51863 40.6547 8.48945 40.6726 8.48184C40.6904 8.47423 40.7093 8.46117 40.7146 8.45281C40.7199 8.44445 40.7477 8.42678 40.7763 8.41353C40.8049 8.40028 40.8284 8.38358 40.8284 8.37643C40.8284 8.36927 40.8415 8.36342 40.8576 8.36342C40.8737 8.36342 40.8911 8.35667 40.8963 8.34843C40.9016 8.34019 40.983 8.29656 41.0774 8.25149C41.1717 8.20642 41.2567 8.16031 41.2664 8.14902C41.276 8.13773 41.2915 8.12844 41.3008 8.12837C41.3101 8.1283 41.3427 8.10518 41.3732 8.07699C41.4037 8.04879 41.4345 8.02572 41.4416 8.02572C41.4487 8.02572 41.4797 8.0026 41.5104 7.97434C41.5412 7.94607 41.5719 7.92295 41.5786 7.92295C41.5854 7.92295 41.6176 7.90124 41.6501 7.87471C41.7194 7.81821 41.8646 7.74225 41.9502 7.71761C42.0063 7.70148 42.0722 7.6926 42.3418 7.66475C42.4457 7.65402 42.5411 7.61615 42.5646 7.57629C42.5713 7.56507 42.583 7.55589 42.5907 7.55589C42.5984 7.55589 42.6404 7.53396 42.6841 7.50715C42.7277 7.48034 42.8075 7.43728 42.8613 7.41145C42.9151 7.38562 42.9694 7.35852 42.9818 7.35122C43.0391 7.31755 43.3842 7.15947 43.4003 7.15947C43.4103 7.15947 43.4185 7.15286 43.4185 7.14478C43.4185 7.13671 43.4287 7.1301 43.4413 7.1301C43.4538 7.1301 43.4758 7.12429 43.4902 7.11718C43.5046 7.11007 43.6214 7.05352 43.7498 6.99151C43.8782 6.9295 44.0238 6.85655 44.0735 6.82939C44.1232 6.80223 44.2128 6.75606 44.2726 6.72678C44.3324 6.69751 44.3852 6.66744 44.39 6.65996C44.3947 6.65249 44.4237 6.63506 44.4544 6.62124C44.4851 6.60743 44.546 6.57421 44.5896 6.54744C44.6332 6.52067 44.6745 6.49876 44.6814 6.49876C44.6882 6.49876 44.7061 6.48555 44.7211 6.4694C44.7361 6.45324 44.7608 6.44003 44.7761 6.44003C44.7914 6.44003 44.8039 6.43373 44.8039 6.42604C44.8039 6.41834 44.8293 6.40075 44.8604 6.38695C44.8914 6.37314 44.9372 6.34767 44.962 6.33035C44.9869 6.31302 45.0317 6.28779 45.0616 6.27428C45.0915 6.26076 45.1245 6.23967 45.135 6.22741C45.1454 6.21515 45.1625 6.20511 45.173 6.20511C45.1834 6.20511 45.2114 6.19524 45.2351 6.18318C45.2935 6.15348 45.4494 6.15341 45.461 6.18309C45.4709 6.20818 45.5147 6.21188 45.5533 6.19089C45.587 6.17255 45.7178 6.1317 45.7428 6.1317C45.8148 6.1317 46.0688 5.95431 46.0688 5.90406C46.0688 5.88405 46.1927 5.76464 46.2134 5.76464C46.2219 5.76464 46.2483 5.74482 46.2721 5.7206C46.2959 5.69637 46.3235 5.67655 46.3333 5.67655C46.3432 5.67655 46.3606 5.66561 46.3719 5.65224C46.3833 5.63887 46.44 5.59144 46.498 5.54683C46.556 5.50223 46.6238 5.44757 46.6486 5.42536C46.7278 5.3546 46.8843 5.22932 46.915 5.2121C46.9313 5.20296 46.9665 5.17488 46.9931 5.1497C47.0198 5.12453 47.0489 5.10394 47.0578 5.10394C47.0668 5.10394 47.0824 5.09416 47.0926 5.08222C47.1027 5.07027 47.129 5.05135 47.1509 5.04017C47.2192 5.00534 47.2644 4.97966 47.3086 4.95075C47.3833 4.90182 47.5007 4.87172 47.5573 4.88696C47.6084 4.90073 47.7948 4.89494 47.891 4.87659C47.9199 4.87106 47.9775 4.8512 48.019 4.83246C48.0604 4.81371 48.126 4.78456 48.1649 4.76767C48.2037 4.75078 48.2395 4.73062 48.2444 4.72288C48.2493 4.71513 48.2626 4.71226 48.2739 4.7165C48.2852 4.72073 48.2988 4.71735 48.3041 4.70899C48.3094 4.70063 48.3559 4.6732 48.4073 4.64804C48.5516 4.57748 48.6175 4.54161 48.669 4.50563C48.695 4.48746 48.7229 4.4726 48.731 4.4726C48.739 4.4726 48.7537 4.46306 48.7637 4.45141C48.7736 4.43975 48.8303 4.40588 48.8897 4.37615C48.9492 4.34641 49.007 4.31491 49.0182 4.30615C49.0463 4.28427 49.088 4.26186 49.3742 4.11494C49.4157 4.09368 49.4692 4.07627 49.4933 4.07623L49.5371 4.07617L49.5267 4.3221C49.521 4.45736 49.5092 4.59776 49.5003 4.6341C49.4915 4.67044 49.4809 4.73321 49.4768 4.77358C49.4727 4.81396 49.4632 4.85327 49.4557 4.86094C49.4482 4.86862 49.442 4.88765 49.442 4.90323C49.442 4.91892 49.3949 4.97666 49.3366 5.03253C49.2786 5.08806 49.2312 5.14336 49.2312 5.15542C49.2312 5.16748 49.2256 5.17735 49.2187 5.17735C49.2118 5.17735 49.1968 5.19552 49.1854 5.21772C49.174 5.23993 49.1568 5.26801 49.1471 5.28012C49.132 5.29893 49.0329 5.47585 48.9649 5.60526C48.9536 5.62662 48.9344 5.65221 48.9222 5.66212C48.9099 5.67203 48.8997 5.68759 48.8995 5.6967C48.8989 5.71704 48.8249 5.7955 48.7856 5.81741C48.6656 5.88436 48.6088 5.90607 48.5008 5.92636C48.4511 5.9357 48.3953 5.9462 48.3767 5.94969C48.3581 5.95318 48.3377 5.957 48.3315 5.95817C48.2476 5.97394 48.058 6.03577 47.9813 6.07238C47.8422 6.13877 47.8189 6.15257 47.7725 6.19592C47.7498 6.21713 47.7248 6.23454 47.717 6.23461C47.7091 6.23468 47.6778 6.2578 47.6473 6.28599C47.6167 6.31419 47.5851 6.33725 47.5769 6.33725C47.5687 6.33725 47.5428 6.35252 47.5194 6.37117C47.496 6.38983 47.4389 6.42283 47.3926 6.44452C47.2724 6.50085 47.2284 6.56034 47.2284 6.66654C47.2284 6.70251 47.2216 6.73603 47.2133 6.74102C47.205 6.74601 47.1982 6.79556 47.1982 6.85114C47.1982 6.90671 47.1923 6.95574 47.1851 6.96008C47.1779 6.96443 47.1678 6.98843 47.1627 7.01341C47.1517 7.06695 47.0128 7.21512 46.9618 7.22758C46.9428 7.23224 46.9272 7.24195 46.9272 7.24915C46.9272 7.25635 46.9153 7.26228 46.9008 7.26233C46.8863 7.26238 46.8551 7.27229 46.8314 7.28436C46.8076 7.29642 46.7758 7.30629 46.7607 7.30629C46.7456 7.30629 46.729 7.3129 46.7239 7.32097C46.7188 7.32905 46.7014 7.33565 46.6852 7.33565C46.669 7.33565 46.6271 7.34829 46.592 7.36374C46.5569 7.37918 46.501 7.39984 46.4679 7.40964C46.4348 7.41944 46.3969 7.43655 46.3839 7.44766C46.3708 7.45877 46.3565 7.46438 46.3521 7.46013C46.3478 7.45588 46.3356 7.46247 46.3251 7.47478C46.3147 7.48709 46.2934 7.49716 46.2778 7.49716C46.2623 7.49716 46.2495 7.50377 46.2495 7.51184C46.2495 7.51992 46.2368 7.52653 46.2213 7.52653C46.2057 7.52653 46.1846 7.53644 46.1742 7.54855C46.1639 7.56066 46.1472 7.57057 46.1371 7.57057C46.127 7.57057 46.1064 7.58379 46.0914 7.59994C46.0764 7.61609 46.0568 7.62936 46.0477 7.62942C46.0386 7.62949 46.0007 7.65892 45.9634 7.69482C45.9262 7.73073 45.8876 7.76041 45.8778 7.76078C45.868 7.76114 45.7913 7.82751 45.7074 7.90827C45.6236 7.98902 45.5465 8.05509 45.5362 8.05509C45.526 8.05509 45.4946 8.07821 45.4665 8.10648C45.4384 8.13474 45.4077 8.15787 45.3984 8.15787C45.389 8.15787 45.3655 8.17438 45.346 8.19457C45.3266 8.21476 45.3029 8.23128 45.2935 8.23128C45.2841 8.23128 45.2633 8.24317 45.2472 8.25771C45.2312 8.27225 45.2078 8.28863 45.1954 8.29411C45.183 8.29959 45.1457 8.3203 45.1126 8.34014C44.9564 8.43366 44.5899 8.61302 44.5549 8.61302C44.5448 8.61302 44.5282 8.62286 44.5179 8.63488C44.5077 8.6469 44.494 8.65354 44.4875 8.64963C44.4757 8.64251 44.1688 8.79073 44.1262 8.8241C44.1138 8.83385 44.0732 8.85686 44.0359 8.87524C43.9534 8.91594 43.8812 8.9655 43.807 9.0324C43.7763 9.06015 43.7457 9.08291 43.7391 9.08297C43.7326 9.08304 43.6707 9.13589 43.6016 9.20043C43.5326 9.26497 43.4706 9.31777 43.4639 9.31777C43.4571 9.31777 43.4009 9.36402 43.3388 9.42055C43.2767 9.47708 43.2197 9.52332 43.2121 9.52332C43.195 9.52332 42.9253 9.79565 42.8839 9.85472C42.8488 9.90469 42.8011 10.004 42.8011 10.0268C42.8011 10.056 42.7373 10.1715 42.7024 10.2055C42.6834 10.224 42.6454 10.2545 42.6178 10.2734C42.4854 10.364 42.3924 10.4692 42.3256 10.604C42.2889 10.678 42.259 10.7461 42.259 10.7555C42.259 10.8047 42.0731 10.9475 42.0091 10.9475C41.9827 10.9475 41.8674 11.0095 41.8674 11.0236C41.8674 11.0302 41.8565 11.0356 41.8431 11.0356C41.8297 11.0356 41.796 11.0538 41.7683 11.076C41.6765 11.1496 41.624 11.1895 41.5898 11.2118C41.458 11.2976 41.4144 11.3242 41.3479 11.359C41.3065 11.3808 41.2353 11.4102 41.1898 11.4244C41.1442 11.4386 41.0952 11.4561 41.0808 11.4632C41.0664 11.4703 41.022 11.4761 40.9822 11.4761C40.9423 11.4761 40.9032 11.482 40.8954 11.4893C40.8875 11.4965 40.854 11.5057 40.8208 11.5096C40.7556 11.5173 40.637 11.5497 40.5648 11.5794C40.54 11.5897 40.5096 11.6 40.4973 11.6023C40.4851 11.6047 40.4726 11.6136 40.4697 11.6221C40.4668 11.6306 40.4551 11.6376 40.4436 11.6376C40.4134 11.6376 40.323 11.7191 40.2836 11.7818C40.265 11.8115 40.2308 11.8556 40.2078 11.8798C40.1848 11.9041 40.1659 11.931 40.1658 11.9397C40.1658 11.9484 40.1488 11.971 40.1281 11.99C40.1074 12.0089 40.0905 12.0324 40.0905 12.0421C40.0905 12.0518 40.0801 12.0681 40.0675 12.0784C40.0413 12.0996 39.8194 12.5358 39.8194 12.5661C39.8194 12.5771 39.8136 12.5923 39.8066 12.6C39.7995 12.6077 39.7751 12.6734 39.7524 12.7461C39.7297 12.8188 39.705 12.8934 39.6975 12.912C39.6787 12.9585 39.68 13.3367 39.699 13.3481C39.7072 13.3531 39.7141 13.3881 39.7141 13.426C39.7143 13.5119 39.7778 13.8133 39.821 13.9335C39.8671 14.0614 39.9616 14.2356 40.0149 14.2906C40.0399 14.3164 40.0604 14.3445 40.0604 14.3531C40.0604 14.3616 40.0908 14.4 40.128 14.4383C40.1653 14.4766 40.1958 14.5149 40.1958 14.5235C40.1959 14.532 40.2196 14.5613 40.2486 14.5887C40.2776 14.6161 40.3013 14.6458 40.3013 14.6546C40.3013 14.6635 40.3318 14.6999 40.3691 14.7356C40.4063 14.7712 40.4368 14.8073 40.4368 14.8158C40.4368 14.8242 40.4741 14.8692 40.5197 14.9158C40.5652 14.9624 40.6025 15.0089 40.6025 15.0192C40.6025 15.0294 40.633 15.067 40.6702 15.1026C40.7075 15.1383 40.738 15.1746 40.738 15.1833C40.738 15.1919 40.7753 15.2349 40.8208 15.2788C40.8664 15.3227 40.9037 15.3654 40.9038 15.3737C40.9039 15.3821 40.9511 15.4352 41.0087 15.4917C41.0663 15.5482 41.1138 15.6011 41.1141 15.6092C41.1144 15.6172 41.1595 15.6701 41.2142 15.7266C41.269 15.7831 41.3316 15.852 41.3534 15.8797C41.3752 15.9074 41.4337 15.9725 41.4834 16.0244C41.5331 16.0763 41.5801 16.1296 41.5879 16.1428C41.5957 16.1561 41.6256 16.1918 41.6543 16.2221C41.6831 16.2524 41.7181 16.2954 41.7322 16.3176C41.7462 16.3398 41.7722 16.3705 41.79 16.3859C41.8077 16.4013 41.8224 16.4211 41.8226 16.43C41.8228 16.4388 41.8652 16.4899 41.9167 16.5435C42.0021 16.6323 42.0913 16.7416 42.1315 16.8067C42.1401 16.8206 42.1565 16.8429 42.1678 16.8562C42.1938 16.8867 42.259 17.0115 42.259 17.0307C42.259 17.0386 42.2749 17.0788 42.2943 17.12C42.3509 17.24 42.3988 17.3808 42.406 17.4481L42.4126 17.5105H42.0204C41.7752 17.5105 41.6248 17.505 41.619 17.4958C41.6138 17.4878 41.5662 17.4812 41.5132 17.4812C41.4201 17.4812 41.3698 17.4669 41.25 17.4067C41.0986 17.3306 40.9662 17.2756 40.9343 17.2756C40.9184 17.2756 40.9017 17.2697 40.8971 17.2625C40.878 17.2324 40.5475 17.2068 40.4672 17.2292C40.4381 17.2374 40.375 17.2523 40.327 17.2623C40.2789 17.2724 40.2362 17.2861 40.232 17.2928C40.2277 17.2995 40.2135 17.305 40.2005 17.305C40.1551 17.305 39.932 17.4223 39.8658 17.4809C39.8292 17.5134 39.794 17.5399 39.7875 17.5399C39.781 17.5399 39.7205 17.5911 39.653 17.6537C39.5856 17.7163 39.5226 17.7702 39.5132 17.7735C39.5037 17.7769 39.4722 17.8016 39.4431 17.8285C39.414 17.8553 39.3828 17.8774 39.3738 17.8775C39.3647 17.8775 39.3451 17.8906 39.3303 17.9066C39.3155 17.9226 39.2979 17.9323 39.2911 17.9282C39.2844 17.9242 39.2429 17.9378 39.199 17.9585C39.1279 17.9921 39.0862 18.0057 38.9649 18.0345C38.9463 18.0389 38.908 18.0318 38.8798 18.0188C38.8516 18.0057 38.8221 17.995 38.8143 17.995C38.8065 17.995 38.7878 17.9818 38.7728 17.9657C38.7578 17.9495 38.7382 17.9363 38.7291 17.9362C38.72 17.9362 38.6909 17.9164 38.6645 17.8922C38.638 17.868 38.6097 17.8482 38.6016 17.8482C38.5935 17.8482 38.5678 17.8329 38.5443 17.8142C38.5209 17.7956 38.4781 17.7688 38.4491 17.7549C38.4201 17.7409 38.376 17.7169 38.3512 17.7015C38.3061 17.6737 37.9922 17.521 37.8276 17.4469C37.7798 17.4254 37.7276 17.4078 37.7117 17.4078C37.6959 17.4078 37.6794 17.4023 37.6751 17.3955C37.6709 17.3888 37.6207 17.3748 37.5636 17.3643C37.4585 17.3449 37.3432 17.3493 37.2105 17.3777C37.1711 17.3862 37.1102 17.3993 37.075 17.4069C37.0398 17.4146 36.9838 17.4266 36.9507 17.4337C36.9176 17.4408 36.8757 17.4544 36.8576 17.4639C36.8395 17.4734 36.7908 17.4812 36.7493 17.4812C36.7078 17.4812 36.6697 17.4878 36.6646 17.4958C36.6594 17.5041 36.5869 17.5105 36.499 17.5105C36.411 17.5105 36.3385 17.5169 36.3333 17.5252C36.3282 17.5333 36.2961 17.5399 36.2619 17.5399C36.1983 17.5399 36.0527 17.5818 35.9719 17.6234C35.9157 17.6523 35.8007 17.7575 35.7821 17.7968C35.7745 17.813 35.7513 17.8526 35.7305 17.8849C35.7098 17.9172 35.6861 17.9569 35.6778 17.973C35.6696 17.9892 35.6459 18.0288 35.6251 18.0611C35.6043 18.0934 35.5833 18.1298 35.5784 18.1419C35.5736 18.154 35.5607 18.1837 35.5499 18.2079C35.4739 18.3773 35.4687 18.4047 35.4666 18.6456C35.4655 18.775 35.459 18.8913 35.4522 18.9041C35.4331 18.9401 35.3771 19.1306 35.3771 19.1597C35.3771 19.174 35.3963 19.1964 35.4197 19.2095C35.4808 19.2437 35.5015 19.3001 35.4926 19.4083C35.484 19.5142 35.4706 19.5903 35.4531 19.6321C35.4464 19.6483 35.4287 19.6912 35.4137 19.7276C35.3987 19.7639 35.3765 19.8052 35.3643 19.8194C35.3521 19.8336 35.3347 19.8578 35.3257 19.8732C35.3167 19.8886 35.287 19.9323 35.2597 19.9702C35.1958 20.0592 35.1667 20.1419 35.1665 20.2355C35.1661 20.3522 35.1431 20.3649 34.952 20.3537C34.8669 20.3487 34.7546 20.3386 34.7025 20.3312C34.5328 20.3074 34.3917 20.3623 34.2413 20.5106C34.1827 20.5685 34.0612 20.6687 33.9713 20.7333C33.8814 20.7979 33.7823 20.8722 33.7511 20.8985C33.7199 20.9247 33.6858 20.9462 33.6753 20.9462C33.6649 20.9462 33.6406 20.9627 33.6214 20.9829C33.6022 21.0031 33.5764 21.0196 33.5641 21.0196C33.5518 21.0196 33.5375 21.0262 33.5324 21.0343C33.5272 21.0424 33.5082 21.049 33.4901 21.0491C33.4719 21.0491 33.4377 21.059 33.4139 21.0711C33.3902 21.0832 33.3483 21.093 33.3207 21.093C33.2932 21.093 33.2664 21.0996 33.2613 21.1077C33.2562 21.1158 33.2189 21.1224 33.1785 21.1224C33.1381 21.1224 33.1008 21.129 33.0957 21.1371C33.0905 21.1451 33.0552 21.1518 33.017 21.1518C32.9502 21.1518 32.6499 21.2408 32.61 21.2725C32.5997 21.2808 32.5912 21.2837 32.5912 21.2792C32.5912 21.2746 32.559 21.2841 32.5197 21.3003C32.4803 21.3166 32.4346 21.3352 32.418 21.3417C32.231 21.4154 31.986 21.5389 31.9763 21.5644C31.9735 21.5716 31.9591 21.5775 31.9442 21.5775C31.9294 21.5775 31.9088 21.5874 31.8985 21.5996C31.8882 21.6117 31.8712 21.6216 31.8608 21.6216C31.8504 21.6216 31.8329 21.6322 31.8219 21.6451C31.8109 21.6581 31.788 21.6747 31.7711 21.682C31.7427 21.6943 31.7163 21.7093 31.5997 21.7794C31.5027 21.8378 31.4376 21.8838 31.4105 21.9133C31.3947 21.9305 31.3735 21.9446 31.3634 21.9446C31.3533 21.9446 31.3366 21.9545 31.3262 21.9666C31.3159 21.9787 31.2918 21.9886 31.2726 21.9886C31.2534 21.9886 31.2335 21.9952 31.2284 22.0033C31.2232 22.0114 31.1928 22.018 31.1606 22.018C31.1284 22.018 31.0984 22.0239 31.0938 22.0311C31.0892 22.0384 31.06 22.0477 31.0289 22.0519C30.9978 22.0561 30.9419 22.0667 30.9046 22.0755C30.7598 22.1095 30.6236 22.1379 30.5694 22.1454C30.5383 22.1497 30.5091 22.1592 30.5046 22.1664C30.5 22.1736 30.4869 22.1795 30.4756 22.1795C30.4436 22.1795 30.2637 22.2641 30.2423 22.2893C30.2318 22.3016 30.2153 22.3117 30.2055 22.3117C30.1957 22.3117 30.1647 22.3348 30.1366 22.363C30.1085 22.3913 30.077 22.4144 30.0667 22.4144C30.0563 22.4144 30.0295 22.431 30.0072 22.4511C29.9709 22.4839 29.9543 22.4877 29.852 22.4866C29.7891 22.4859 29.6969 22.4793 29.6472 22.4718C29.5975 22.4643 29.5128 22.455 29.459 22.4512C29.4051 22.4473 29.317 22.4376 29.2632 22.4296C29.1173 22.4081 28.8359 22.3942 28.5479 22.3942C28.3116 22.3943 28.2268 22.4024 28.0434 22.4426C27.8297 22.4894 27.7929 22.4979 27.7724 22.5054C27.7599 22.51 27.7193 22.5216 27.682 22.5312C27.6447 22.5407 27.5939 22.5543 27.5691 22.5613C27.5164 22.5761 27.3918 22.6098 27.3808 22.6123C27.2579 22.6395 27.1979 22.6564 27.155 22.676C27.126 22.6893 27.0921 22.701 27.0797 22.7021C27.046 22.7051 26.7456 22.8527 26.7107 22.8834C26.6942 22.898 26.6723 22.9124 26.6622 22.9154C26.6381 22.9227 26.402 23.1495 26.402 23.1654C26.402 23.1721 26.3698 23.2137 26.3305 23.2578C26.2058 23.3976 26.1828 23.4348 26.144 23.5597C26.1181 23.6429 26.1177 23.9637 26.1434 23.9888C26.1531 23.9982 26.1611 24.0373 26.1611 24.0756C26.1611 24.1139 26.1678 24.1493 26.1761 24.1543C26.1844 24.1593 26.1912 24.1911 26.1912 24.2251C26.1912 24.2929 26.2321 24.4149 26.2796 24.4887C26.3094 24.5351 26.32 24.556 26.3974 24.7196C26.4184 24.764 26.4416 24.8118 26.4489 24.8258C26.4731 24.872 26.463 24.8949 26.4023 24.9323C26.3541 24.9619 26.3231 24.9692 26.244 24.9692C26.1899 24.9692 26.1338 24.9631 26.1195 24.9558C26.0159 24.9028 25.9499 24.8934 25.7433 24.9022C25.524 24.9116 25.4426 24.9256 25.3328 24.973C25.231 25.017 25.2089 25.0248 25.1597 25.0349C25.1348 25.04 25.0874 25.0497 25.0542 25.0565C25.0211 25.0634 24.9703 25.0762 24.9414 25.0851C24.869 25.1074 24.7979 25.1054 24.7767 25.0804Z" fill="#D67900"/>
<path d="M16.7471 25.4895C16.7471 25.4895 16.8766 25.7808 17.0535 26.1358C17.2305 26.4909 17.4548 26.9097 17.6444 27.1647C17.7701 27.3337 17.9169 27.4943 18.0931 27.6128C18.319 27.7647 18.8482 27.9329 18.8482 27.9329C18.8482 27.9329 18.8284 27.4451 18.7197 27.2001C18.6179 26.9706 18.395 26.6891 18.2048 26.5215C17.7639 26.1331 17.3891 25.869 17.1245 25.7021C16.8599 25.5351 16.7471 25.4895 16.7471 25.4895Z" fill="#4D5B2D"/>
<path d="M18.8955 26.0222C18.8955 26.0222 18.9063 26.2293 18.9315 26.4858C18.9566 26.7424 18.9961 27.0484 19.0535 27.2462C19.1155 27.4604 19.2123 27.6673 19.3361 27.8542C19.4363 28.0053 19.702 28.2595 19.702 28.2595C19.702 28.2595 19.8034 27.9439 19.8017 27.7812C19.7991 27.5348 19.7372 27.2854 19.6354 27.0598C19.5485 26.867 19.4134 26.5752 19.2501 26.364C19.0869 26.1528 18.8955 26.0222 18.8955 26.0222Z" fill="#4D5B2D"/>
<path d="M17.0508 27.9749C17.0508 27.9749 17.6377 28.5581 17.9939 28.7645C18.1633 28.8626 18.3527 28.9342 18.5465 28.9688C18.7277 29.0012 19.099 28.9688 19.099 28.9688C19.099 28.9688 19.0661 28.743 18.8323 28.4765C18.6634 28.284 18.3328 28.1653 18.0892 28.0771C17.6088 27.9032 17.0508 27.9749 17.0508 27.9749Z" fill="#4D5B2D"/>
<path d="M18.9746 28.1709C18.9746 28.1709 19.3177 28.856 19.5456 29.1634C19.6989 29.3701 19.8683 29.5722 20.0753 29.7282C20.735 30.2253 21.1014 30.18 21.1014 30.18C21.1014 30.18 21.0748 29.8341 21.0021 29.6798C20.8482 29.3525 20.6011 29.0604 20.3153 28.8325C19.9275 28.5235 18.9746 28.1709 18.9746 28.1709Z" fill="#4D5B2D"/>
<path d="M18.8506 30.0428C18.8506 30.0428 19.2775 30.4396 19.5209 30.5995C19.7041 30.7199 19.8989 30.83 20.1085 30.8981C20.2862 30.9558 20.4758 30.9795 20.6629 30.9868C21.1212 31.0048 21.3416 30.9384 21.3416 30.9384C21.3416 30.9384 21.341 30.7167 20.9443 30.422C20.7124 30.2497 20.4261 30.1453 20.1416 30.0831C19.7214 29.9914 18.8506 30.0428 18.8506 30.0428Z" fill="#4D5B2D"/>
<path d="M20.4971 27.8804C20.4971 27.8804 20.6542 28.4474 20.7619 28.7114C20.8562 28.9428 20.9591 29.1743 21.1012 29.3812C21.2197 29.5538 21.3677 29.7515 21.5342 29.8812C21.6741 29.99 21.995 30.0993 21.995 30.0993C21.995 30.0993 21.9764 29.6951 21.9205 29.5022C21.8521 29.2659 21.7491 29.0345 21.606 28.8325C21.4253 28.5774 21.1691 28.3814 20.9357 28.1708C20.6126 27.8795 20.4971 27.8804 20.4971 27.8804Z" fill="#4D5B2D"/>
<path d="M21.2891 30.3123C21.2891 30.3123 21.6374 30.6991 21.8362 30.8671C22.0772 31.0707 22.3374 31.2553 22.6132 31.4113C22.7728 31.5015 22.9395 31.5852 23.1166 31.6353C23.297 31.6863 23.487 31.7064 23.6747 31.71C23.7883 31.7122 24.014 31.678 24.014 31.678C24.014 31.678 23.8083 31.2813 23.6528 31.1232C23.4714 30.9387 23.2411 30.801 23.0072 30.6857C22.7045 30.5366 22.3765 30.4314 22.0442 30.3656C21.7969 30.3166 21.2891 30.3123 21.2891 30.3123Z" fill="#4D5B2D"/>
<path d="M23.0068 30.0562C23.0068 30.0562 23.3085 30.5053 23.4993 30.6964C23.6876 30.8851 23.9077 31.0436 24.134 31.1872C24.3377 31.3166 24.5453 31.455 24.7797 31.518C24.9734 31.5701 25.3816 31.55 25.3816 31.55C25.3816 31.55 25.3043 31.2293 25.2174 31.0912C25.0879 30.8853 24.9046 30.7087 24.7031 30.5684C24.4348 30.3816 24.1221 30.2533 23.8057 30.1629C23.5478 30.0892 23.0068 30.0562 23.0068 30.0562Z" fill="#4D5B2D"/>
<path d="M21.6602 32.1475C21.6602 32.1475 21.9503 32.3686 22.4154 32.4996C22.6453 32.5644 22.8775 32.6054 23.1157 32.6277C23.3194 32.6467 23.7227 32.6214 23.9256 32.5957C24.1727 32.5643 24.4508 32.4036 24.4508 32.4036C24.4508 32.4036 24.2664 32.1385 24.0678 32.0515C23.721 31.8996 23.2169 31.8475 22.8369 31.8598C22.0743 31.8844 21.6602 32.1475 21.6602 32.1475Z" fill="#4D5B2D"/>
<path d="M24.1699 31.8041C24.1699 31.8041 24.8259 32.3175 25.165 32.4994C25.4654 32.6606 25.7912 32.7864 26.1268 32.8551C26.7222 32.977 27.2877 32.8874 27.2877 32.8874C27.2877 32.8874 27.1964 32.6302 27.1053 32.5317C26.8639 32.2708 26.5318 32.0862 26.1932 31.9658C25.8002 31.8261 25.367 31.8264 24.9494 31.8041C24.712 31.7914 24.1699 31.8041 24.1699 31.8041Z" fill="#4D5B2D"/>
<path d="M26.3418 31.3513C26.3418 31.3513 26.8784 32.14 27.2373 32.4508C27.4656 32.6485 27.7311 32.8147 28.0168 32.9198C28.2634 33.0105 28.8181 33.0491 28.8181 33.0491C28.8181 33.0491 28.829 32.8719 28.7791 32.752C28.6747 32.5013 28.4384 32.2406 28.2158 32.0789C27.8708 31.8284 27.4769 31.6373 27.0715 31.4968C26.8375 31.4158 26.3418 31.3513 26.3418 31.3513Z" fill="#4D5B2D"/>
<path d="M25.4756 33.5093C25.4756 33.5093 26.184 33.6915 26.5467 33.733C26.7874 33.7606 27.0319 33.7678 27.2735 33.749C27.495 33.7318 27.7276 33.7227 27.9293 33.6318C28.2325 33.4952 28.3938 33.3334 28.3938 33.3334C28.2209 33.1311 27.9164 33.0861 27.6888 33.0564C27.4198 33.0217 27.1442 33.0313 26.8746 33.0617C26.5647 33.0967 26.255 33.1597 25.962 33.2642C25.7905 33.3252 25.4756 33.5093 25.4756 33.5093Z" fill="#4D5B2D"/>
<path d="M28.6924 33.312C28.7442 33.3414 28.7739 33.3654 28.7924 33.3867C28.7924 33.3867 29.293 33.5136 29.5356 33.5998C29.7187 33.665 29.9079 33.7251 30.0711 33.8289C30.2493 33.9423 30.3952 34.099 30.5411 34.2499C30.7072 34.4216 31.0002 34.7987 31.0002 34.7987L31.0768 34.912L31.1346 34.909C31.1346 34.909 31.1673 34.5805 31.2211 34.4391C31.2746 34.2982 31.4312 34.2027 31.4312 34.2027L31.4343 34.1252C30.9571 33.8439 30.433 33.5559 29.9236 33.4347C29.6814 33.3776 29.4345 33.3329 29.1858 33.3174C29.0258 33.3075 28.6924 33.312 28.6924 33.312Z" fill="#4D5B2D"/>
<path d="M18.9149 29.4138C18.8804 29.52 18.9104 29.6501 18.9732 29.7432C19.0394 29.8414 19.1593 29.9067 19.276 29.9362C19.3288 29.9496 19.39 29.948 19.4391 29.9249C19.496 29.898 19.5492 29.8477 19.5672 29.7886C19.5941 29.7003 19.566 29.5968 19.5206 29.516C19.4704 29.4267 19.3843 29.3503 19.2877 29.3116C19.2085 29.28 19.1111 29.2701 19.0314 29.3003C18.9802 29.3196 18.9315 29.3628 18.9149 29.4138Z" fill="#4D5B2D"/>
<path d="M20.0182 27.8348C19.9385 27.9251 19.9056 28.0722 19.9189 28.1982C19.9329 28.3312 20.01 28.4577 20.1008 28.5463C20.1418 28.5864 20.1973 28.6156 20.2518 28.6168C20.315 28.6182 20.3858 28.5939 20.429 28.543C20.4936 28.4669 20.5161 28.3478 20.5127 28.243C20.5088 28.1272 20.4671 28.0063 20.3984 27.9185C20.3423 27.8466 20.2597 27.7876 20.1746 27.7781C20.1199 27.772 20.0566 27.7914 20.0182 27.8348Z" fill="#4D5B2D"/>
<path d="M21.3418 31.5246C21.3892 31.6276 21.5078 31.7084 21.6271 31.7404C21.7531 31.7742 21.9001 31.7491 22.0189 31.6985C22.0725 31.6757 22.1225 31.6361 22.1469 31.5876C22.1751 31.5314 22.1834 31.4595 22.1559 31.4029C22.1149 31.3185 22.0171 31.2567 21.9211 31.2233C21.815 31.1864 21.6881 31.1818 21.5796 31.2127C21.4908 31.2381 21.4023 31.2916 21.3574 31.3646C21.3286 31.4116 21.319 31.4751 21.3418 31.5246Z" fill="#4D5B2D"/>
<path d="M24.4897 33.0808C24.5539 33.1742 24.6832 33.2336 24.8047 33.245C24.933 33.2569 25.0713 33.2072 25.1778 33.1374C25.2259 33.1058 25.2675 33.0583 25.2826 33.0065C25.3002 32.9463 25.2956 32.8741 25.259 32.8231C25.2043 32.7468 25.0985 32.7026 24.9994 32.686C24.8898 32.6676 24.7658 32.6845 24.6659 32.7333C24.5841 32.7733 24.5076 32.841 24.4768 32.9205C24.457 32.9716 24.4589 33.0359 24.4897 33.0808Z" fill="#4D5B2D"/>
<path d="M22.1418 29.7545C22.1042 29.8697 22.1369 30.0109 22.205 30.112C22.2769 30.2187 22.4071 30.2896 22.5339 30.3216C22.5912 30.3361 22.7276 30.3344 22.7809 30.3093C22.8427 30.2802 22.8306 30.2255 22.8501 30.1613C22.8793 30.0655 22.8488 29.9531 22.7995 29.8654C22.745 29.7685 22.6515 29.6854 22.5465 29.6435C22.4606 29.6092 22.3548 29.5984 22.2683 29.6312C22.2127 29.6522 22.1598 29.6991 22.1418 29.7545Z" fill="#4D5B2D"/>
<path d="M25.5603 31.1424C25.5098 31.244 25.5226 31.3845 25.5742 31.4942C25.6286 31.61 25.7428 31.7037 25.8589 31.7599C25.9113 31.7853 25.9745 31.7972 26.0283 31.7842C26.0906 31.7692 26.1524 31.7291 26.1792 31.6723C26.2192 31.5873 26.2048 31.4746 26.1694 31.3814C26.1302 31.2784 26.0523 31.1807 25.9582 31.1196C25.8812 31.0695 25.7823 31.0378 25.696 31.0512C25.6406 31.0599 25.5845 31.0935 25.5603 31.1424Z" fill="#4D5B2D"/>
<path d="M43.2529 25.4895C43.2529 25.4895 43.1234 25.7808 42.9465 26.1358C42.7695 26.4909 42.5452 26.9097 42.3556 27.1647C42.2299 27.3337 42.0831 27.4943 41.9069 27.6128C41.681 27.7647 41.1518 27.9329 41.1518 27.9329C41.1518 27.9329 41.1716 27.4451 41.2803 27.2001C41.3821 26.9706 41.605 26.6891 41.7952 26.5215C42.2361 26.1331 42.6109 25.869 42.8755 25.7021C43.1401 25.5351 43.2529 25.4895 43.2529 25.4895Z" fill="#4D5B2D"/>
<path d="M41.1045 26.0222C41.1045 26.0222 41.0937 26.2293 41.0685 26.4858C41.0434 26.7424 41.0039 27.0484 40.9465 27.2462C40.8845 27.4604 40.7877 27.6673 40.6639 27.8542C40.5637 28.0053 40.298 28.2595 40.298 28.2595C40.298 28.2595 40.1966 27.9439 40.1983 27.7812C40.2009 27.5348 40.2628 27.2854 40.3646 27.0598C40.4515 26.867 40.5866 26.5752 40.7499 26.364C40.9131 26.1528 41.1045 26.0222 41.1045 26.0222Z" fill="#4D5B2D"/>
<path d="M42.9492 27.9749C42.9492 27.9749 42.3623 28.5581 42.0061 28.7645C41.8367 28.8626 41.6473 28.9342 41.4535 28.9688C41.2723 29.0012 40.901 28.9688 40.901 28.9688C40.901 28.9688 40.9339 28.743 41.1677 28.4765C41.3366 28.284 41.6672 28.1653 41.9108 28.0771C42.3912 27.9032 42.9492 27.9749 42.9492 27.9749Z" fill="#4D5B2D"/>
<path d="M41.0254 28.1709C41.0254 28.1709 40.6823 28.856 40.4544 29.1634C40.3011 29.3701 40.1317 29.5722 39.9247 29.7282C39.265 30.2253 38.8986 30.18 38.8986 30.18C38.8986 30.18 38.9252 29.8341 38.9979 29.6798C39.1518 29.3525 39.3989 29.0604 39.6847 28.8325C40.0725 28.5235 41.0254 28.1709 41.0254 28.1709Z" fill="#4D5B2D"/>
<path d="M41.1494 30.0429C41.1494 30.0429 40.7225 30.4397 40.4791 30.5996C40.2959 30.7199 40.1011 30.8301 39.8915 30.8981C39.7138 30.9559 39.5242 30.9796 39.3371 30.9869C38.8788 31.0049 38.6584 30.9385 38.6584 30.9385C38.6584 30.9385 38.659 30.7167 39.0557 30.4221C39.2876 30.2498 39.5739 30.1453 39.8584 30.0832C40.2786 29.9915 41.1494 30.0429 41.1494 30.0429Z" fill="#4D5B2D"/>
<path d="M39.5029 27.8804C39.5029 27.8804 39.3458 28.4474 39.2381 28.7114C39.1438 28.9428 39.0409 29.1743 38.8988 29.3812C38.7803 29.5538 38.6323 29.7515 38.4658 29.8812C38.3259 29.99 38.005 30.0993 38.005 30.0993C38.005 30.0993 38.0236 29.6951 38.0795 29.5022C38.1479 29.2659 38.2509 29.0345 38.394 28.8325C38.5747 28.5774 38.8309 28.3814 39.0643 28.1708C39.3874 27.8795 39.5029 27.8804 39.5029 27.8804Z" fill="#4D5B2D"/>
<path d="M38.7109 30.3123C38.7109 30.3123 38.3626 30.6991 38.1638 30.8671C37.9228 31.0707 37.6626 31.2553 37.3868 31.4113C37.2272 31.5015 37.0605 31.5852 36.8834 31.6353C36.703 31.6863 36.513 31.7064 36.3253 31.71C36.2117 31.7122 35.986 31.678 35.986 31.678C35.986 31.678 36.1917 31.2813 36.3472 31.1232C36.5286 30.9387 36.7589 30.801 36.9928 30.6857C37.2955 30.5366 37.6235 30.4314 37.9558 30.3656C38.2031 30.3166 38.7109 30.3123 38.7109 30.3123Z" fill="#4D5B2D"/>
<path d="M36.9932 30.0562C36.9932 30.0562 36.6915 30.5053 36.5007 30.6964C36.3124 30.8851 36.0923 31.0436 35.866 31.1872C35.6623 31.3166 35.4547 31.455 35.2203 31.518C35.0266 31.5701 34.6184 31.55 34.6184 31.55C34.6184 31.55 34.6957 31.2293 34.7826 31.0912C34.9121 30.8853 35.0954 30.7087 35.2969 30.5684C35.5652 30.3816 35.8779 30.2533 36.1943 30.1629C36.4522 30.0892 36.9932 30.0562 36.9932 30.0562Z" fill="#4D5B2D"/>
<path d="M38.3398 32.1475C38.3398 32.1475 38.0497 32.3686 37.5846 32.4996C37.3547 32.5644 37.1225 32.6054 36.8843 32.6277C36.6806 32.6467 36.2773 32.6214 36.0744 32.5957C35.8273 32.5643 35.5492 32.4036 35.5492 32.4036C35.5492 32.4036 35.7336 32.1385 35.9322 32.0515C36.279 31.8996 36.7831 31.8475 37.1631 31.8598C37.9257 31.8844 38.3398 32.1475 38.3398 32.1475Z" fill="#4D5B2D"/>
<path d="M35.8301 31.8041C35.8301 31.8041 35.1741 32.3175 34.835 32.4994C34.5346 32.6606 34.2088 32.7864 33.8732 32.8551C33.2778 32.977 32.7123 32.8874 32.7123 32.8874C32.7123 32.8874 32.8036 32.6302 32.8947 32.5317C33.1361 32.2708 33.4682 32.0862 33.8068 31.9658C34.1998 31.8261 34.633 31.8264 35.0506 31.8041C35.288 31.7914 35.8301 31.8041 35.8301 31.8041Z" fill="#4D5B2D"/>
<path d="M33.6582 31.3513C33.6582 31.3513 33.1216 32.14 32.7627 32.4508C32.5344 32.6485 32.2689 32.8147 31.9832 32.9198C31.7366 33.0105 31.1819 33.0491 31.1819 33.0491C31.1819 33.0491 31.171 32.8719 31.2209 32.752C31.3253 32.5013 31.5616 32.2406 31.7842 32.0789C32.1292 31.8284 32.5231 31.6373 32.9285 31.4968C33.1625 31.4158 33.6582 31.3513 33.6582 31.3513Z" fill="#4D5B2D"/>
<path d="M34.5244 33.5093C34.5244 33.5093 33.816 33.6915 33.4533 33.733C33.2126 33.7606 32.9681 33.7678 32.7265 33.749C32.505 33.7318 32.2724 33.7227 32.0707 33.6318C31.7675 33.4952 31.6062 33.3334 31.6062 33.3334C31.7791 33.1311 32.0836 33.0861 32.3112 33.0564C32.5802 33.0217 32.8558 33.0313 33.1254 33.0617C33.4353 33.0967 33.745 33.1597 34.038 33.2642C34.2095 33.3252 34.5244 33.5093 34.5244 33.5093Z" fill="#4D5B2D"/>
<path d="M31.3076 33.312C31.2558 33.3414 31.2261 33.3654 31.2076 33.3867C31.2076 33.3867 30.707 33.5136 30.4644 33.5998C30.2813 33.665 30.0921 33.7251 29.9289 33.8289C29.7507 33.9423 29.6048 34.099 29.4589 34.2499C29.2928 34.4216 28.9998 34.7987 28.9998 34.7987L28.9232 34.912L28.8654 34.909C28.8654 34.909 28.8327 34.5805 28.7789 34.4391C28.7254 34.2982 28.5688 34.2027 28.5688 34.2027L28.5657 34.1252C29.0429 33.8439 29.567 33.5559 30.0764 33.4347C30.3186 33.3776 30.5655 33.3329 30.8142 33.3174C30.9742 33.3075 31.3076 33.312 31.3076 33.312Z" fill="#4D5B2D"/>
<path d="M41.0851 29.4139C41.1196 29.5201 41.0896 29.6501 41.0268 29.7432C40.9606 29.8415 40.8407 29.9067 40.724 29.9363C40.6712 29.9496 40.61 29.948 40.5609 29.9249C40.504 29.8981 40.4508 29.8477 40.4328 29.7886C40.4059 29.7003 40.434 29.5969 40.4794 29.5161C40.5296 29.4268 40.6157 29.3503 40.7123 29.3117C40.7915 29.2801 40.8889 29.2702 40.9686 29.3003C41.0198 29.3197 41.0685 29.3629 41.0851 29.4139Z" fill="#4D5B2D"/>
<path d="M39.9818 27.8348C40.0615 27.9251 40.0944 28.0722 40.0811 28.1982C40.0671 28.3312 39.99 28.4577 39.8992 28.5463C39.8582 28.5864 39.8027 28.6156 39.7482 28.6168C39.685 28.6182 39.6142 28.5939 39.571 28.543C39.5064 28.4669 39.4839 28.3478 39.4873 28.243C39.4912 28.1272 39.5329 28.0063 39.6016 27.9185C39.6577 27.8466 39.7403 27.7876 39.8254 27.7781C39.8801 27.772 39.9434 27.7914 39.9818 27.8348Z" fill="#4D5B2D"/>
<path d="M38.6582 31.5246C38.6108 31.6276 38.4922 31.7084 38.3729 31.7404C38.2469 31.7742 38.0999 31.7491 37.9811 31.6985C37.9275 31.6757 37.8775 31.6361 37.8531 31.5876C37.8249 31.5314 37.8166 31.4595 37.8441 31.4029C37.8851 31.3185 37.9829 31.2567 38.0789 31.2233C38.185 31.1864 38.3119 31.1818 38.4204 31.2127C38.5092 31.2381 38.5977 31.2916 38.6426 31.3646C38.6714 31.4116 38.681 31.4751 38.6582 31.5246Z" fill="#4D5B2D"/>
<path d="M35.5103 33.0808C35.4461 33.1742 35.3168 33.2337 35.1953 33.245C35.067 33.257 34.9287 33.2073 34.8222 33.1374C34.7741 33.1059 34.7325 33.0584 34.7174 33.0065C34.6998 32.9464 34.7044 32.8741 34.741 32.8231C34.7957 32.7469 34.9015 32.7027 35.0006 32.686C35.1102 32.6676 35.2342 32.6845 35.3341 32.7334C35.4159 32.7734 35.4924 32.8411 35.5232 32.9206C35.543 32.9717 35.5411 33.0359 35.5103 33.0808Z" fill="#4D5B2D"/>
<path d="M37.8582 29.7545C37.8958 29.8697 37.8631 30.0109 37.795 30.112C37.7231 30.2187 37.5929 30.2896 37.4661 30.3216C37.4088 30.3361 37.2724 30.3344 37.2191 30.3093C37.1573 30.2802 37.1694 30.2255 37.1499 30.1613C37.1207 30.0655 37.1512 29.9531 37.2005 29.8654C37.255 29.7685 37.3485 29.6854 37.4535 29.6435C37.5394 29.6092 37.6452 29.5984 37.7317 29.6312C37.7873 29.6522 37.8402 29.6991 37.8582 29.7545Z" fill="#4D5B2D"/>
<path d="M34.4397 31.1425C34.4902 31.2441 34.4774 31.3846 34.4258 31.4943C34.3714 31.6101 34.2572 31.7037 34.1411 31.7599C34.0887 31.7853 34.0255 31.7972 33.9717 31.7843C33.9094 31.7692 33.8476 31.7291 33.8208 31.6723C33.7808 31.5874 33.7952 31.4747 33.8306 31.3815C33.8698 31.2785 33.9477 31.1807 34.0418 31.1196C34.1188 31.0696 34.2177 31.0379 34.304 31.0513C34.3594 31.0599 34.4155 31.0936 34.4397 31.1425Z" fill="#4D5B2D"/>
</g>
<defs>
<clipPath id="clip0_1047_740">
<rect width="60" height="39" rx="9" fill="white"/>
</clipPath>
</defs>
</svg>
