<svg width="60" height="39" viewBox="0 0 60 39" fill="none" xmlns="http://www.w3.org/2000/svg">
<g clip-path="url(#clip0_1047_736)">
<path d="M0 0H60V39H0V0Z" fill="#FF0000"/>
<path fill-rule="evenodd" clip-rule="evenodd" d="M31.5544 11.9118L31.7568 7.68493C31.7579 7.66605 31.7454 7.64884 31.7276 7.64583C31.7094 7.6427 31.6923 7.65551 31.6884 7.67465L30.6879 11.7487C30.6848 11.7623 30.6823 11.7755 30.6804 11.7887C30.6426 12.0493 30.807 12.2936 31.0475 12.3346C31.288 12.3755 31.5136 12.1975 31.5513 11.9369C31.5526 11.9285 31.5536 11.92 31.5544 11.9118ZM32.6315 12.2685L33.4456 8.12881C33.4495 8.11022 33.4396 8.09113 33.4225 8.0851C33.4049 8.07896 33.3862 8.08866 33.3795 8.10688L31.7995 11.9595C31.7944 11.9725 31.7901 11.985 31.7863 11.9978C31.7111 12.2486 31.8379 12.518 32.0694 12.5995C32.301 12.6809 32.5497 12.5436 32.6248 12.2927C32.6273 12.2845 32.6295 12.2763 32.6315 12.2685ZM33.6433 12.8044L35.0488 8.85523C35.0553 8.83762 35.0483 8.81704 35.0322 8.80807C35.0158 8.79903 34.9959 8.80549 34.9867 8.82238L32.8665 12.3574C32.8596 12.3694 32.8536 12.3811 32.8479 12.393C32.7373 12.6279 32.8233 12.9155 33.0401 13.0355C33.257 13.1555 33.5225 13.0622 33.6332 12.8273C33.6368 12.8196 33.6402 12.8119 33.6433 12.8044ZM34.5647 13.5052L36.5233 9.8429C36.5322 9.82653 36.5283 9.805 36.5137 9.79353C36.4988 9.78177 36.4782 9.78474 36.4666 9.79988L33.862 12.932C33.8535 12.9427 33.8459 12.9532 33.8386 12.9641C33.6953 13.1772 33.7388 13.476 33.9356 13.6312C34.1324 13.7864 34.4082 13.7393 34.5515 13.5261C34.5561 13.5191 34.5606 13.512 34.5647 13.5052ZM35.3739 14.3525L37.8347 11.0651C37.8459 11.0504 37.8451 11.0286 37.8323 11.0147C37.8193 11.0005 37.7986 11.0001 37.785 11.013L34.7621 13.6679C34.7522 13.677 34.7431 13.686 34.7344 13.6955C34.5622 13.882 34.5622 14.1844 34.7344 14.3708C34.9065 14.5574 35.1856 14.5574 35.3577 14.3708C35.3634 14.3647 35.3688 14.3585 35.3739 14.3525ZM36.0515 15.3258L38.9547 12.4934C38.9678 12.4808 38.9702 12.4591 38.9596 12.4433C38.9488 12.4271 38.9283 12.4231 38.913 12.4336L35.5456 14.5464C35.5344 14.5537 35.5242 14.5611 35.5142 14.569C35.3173 14.7242 35.2739 15.0229 35.4171 15.2362C35.5604 15.4494 35.8361 15.4965 36.033 15.3413C36.0394 15.3362 36.0457 15.331 36.0515 15.3258ZM36.5807 16.4024L39.8571 14.0968C39.8719 14.0866 39.8774 14.0655 39.8692 14.0481C39.8608 14.0304 39.8412 14.0229 39.8245 14.0308L36.1935 15.5469C36.1814 15.5522 36.1702 15.5577 36.1592 15.5638C35.9424 15.6837 35.8563 15.9714 35.967 16.2063C36.0777 16.4412 36.3433 16.5344 36.5601 16.4144C36.5672 16.4106 36.5741 16.4064 36.5807 16.4024ZM36.947 17.5561L40.5176 15.8381C40.5336 15.8305 40.5422 15.8107 40.5366 15.7921C40.5309 15.7731 40.5126 15.7624 40.495 15.7672L36.6889 16.6452C36.6763 16.6485 36.6644 16.652 36.6526 16.6562C36.4211 16.7376 36.2943 17.007 36.3695 17.2579C36.4447 17.5087 36.6934 17.6461 36.9249 17.5646C36.9325 17.562 36.9399 17.5591 36.947 17.5561ZM37.1409 18.758L40.9167 17.6704C40.9337 17.6657 40.9449 17.6476 40.9421 17.6282C40.9393 17.6085 40.9228 17.5948 40.9047 17.5965L37.0185 17.8144C37.0055 17.8155 36.9933 17.817 36.981 17.8191C36.7405 17.8601 36.5762 18.1045 36.614 18.365C36.6518 18.6256 36.8773 18.8036 37.1179 18.7626C37.1258 18.7613 37.1335 18.7597 37.1409 18.758ZM37.1597 19.9768L41.0455 19.5374C41.063 19.5356 41.0767 19.5196 41.0767 19.5C41.0767 19.48 41.0624 19.4637 41.0443 19.4625L37.174 19.0242C37.161 19.023 37.1487 19.0224 37.1363 19.0224C36.8929 19.0224 36.6955 19.2363 36.6955 19.5C36.6955 19.7637 36.8929 19.9775 37.1363 19.9775C37.1442 19.9775 37.1521 19.9773 37.1597 19.9768ZM37.0042 21.1842L40.9059 21.4035C40.9234 21.4046 40.9393 21.3911 40.9421 21.3718C40.945 21.3521 40.9332 21.3335 40.9155 21.3292L37.1549 20.2453C37.1422 20.242 37.1301 20.2394 37.1179 20.2373C36.8773 20.1964 36.6518 20.3744 36.614 20.635C36.5762 20.8955 36.7405 21.1399 36.981 21.1809C36.9889 21.1822 36.9967 21.1834 37.0042 21.1842ZM36.6751 22.351L40.4963 23.233C40.5134 23.2371 40.531 23.2265 40.5366 23.2078C40.5423 23.1888 40.5333 23.1686 40.5164 23.1613L36.9603 21.4496C36.9482 21.4442 36.9367 21.4395 36.9249 21.4353C36.6934 21.3539 36.4447 21.4912 36.3695 21.7421C36.2943 21.9929 36.4211 22.2623 36.6526 22.3438C36.6602 22.3465 36.6678 22.3488 36.6751 22.351ZM36.1803 23.4471L39.8257 24.9697C39.842 24.9767 39.8609 24.9692 39.8692 24.9518C39.8776 24.934 39.8716 24.9124 39.856 24.9024L36.5929 22.6055C36.5818 22.5981 36.5711 22.5915 36.5601 22.5855C36.3433 22.4656 36.0777 22.5588 35.967 22.7936C35.8563 23.0286 35.9424 23.3162 36.1592 23.4361C36.1663 23.4401 36.1734 23.4437 36.1803 23.4471ZM35.5335 24.4453L38.9141 26.567C38.9291 26.5767 38.949 26.5725 38.9596 26.5567C38.9705 26.5406 38.9677 26.5183 38.9538 26.5057L36.0625 23.6841C36.0527 23.6749 36.043 23.6665 36.033 23.6587C35.8361 23.5035 35.5604 23.5506 35.4172 23.7638C35.2739 23.977 35.3174 24.2758 35.5142 24.431C35.5206 24.436 35.5271 24.4408 35.5335 24.4453ZM34.7513 25.3219L37.7859 27.9878C37.7994 27.9999 37.8196 27.999 37.8323 27.9852C37.8454 27.9712 37.8459 27.9486 37.8339 27.9339L35.3833 24.6591C35.3749 24.6483 35.3665 24.6386 35.3577 24.6291C35.1856 24.4426 34.9065 24.4426 34.7344 24.6291C34.5622 24.8156 34.5622 25.1179 34.7344 25.3044C34.74 25.3106 34.7457 25.3164 34.7513 25.3219ZM33.8528 26.056L36.4674 29.2011C36.479 29.2153 36.4991 29.2179 36.5137 29.2064C36.5286 29.1947 36.5323 29.1725 36.5226 29.156L34.5723 25.5079C34.5656 25.4959 34.5587 25.4847 34.5515 25.474C34.4082 25.2606 34.1324 25.2136 33.9356 25.3688C33.7388 25.524 33.6953 25.8227 33.8386 26.0359C33.8433 26.0429 33.8481 26.0497 33.8528 26.056ZM32.8591 26.6292L34.9873 30.1787C34.9967 30.1948 35.0161 30.2007 35.0322 30.1918C35.0487 30.1828 35.0555 30.1615 35.0483 30.1434L33.6489 26.2098C33.6439 26.1967 33.6388 26.1846 33.6332 26.1727C33.5225 25.9378 33.257 25.8445 33.0401 25.9644C32.8233 26.0845 32.7373 26.3721 32.8479 26.6069C32.8516 26.6147 32.8554 26.6221 32.8591 26.6292ZM31.7941 27.0261L33.38 30.8943C33.3869 30.9116 33.4053 30.9209 33.4225 30.9149C33.44 30.9087 33.4498 30.8888 33.4454 30.8698L32.635 26.7465C32.6319 26.7328 32.6287 26.7199 32.6248 26.7072C32.5497 26.4564 32.301 26.319 32.0694 26.4004C31.8379 26.4819 31.7111 26.7513 31.7863 27.0021C31.7888 27.0104 31.7914 27.0184 31.7941 27.0261ZM30.6847 27.2362L31.6887 31.3266C31.693 31.345 31.7098 31.3572 31.7276 31.3541C31.7458 31.3511 31.7584 31.3332 31.7568 31.3136L31.5557 27.1036C31.5547 27.0895 31.5533 27.0762 31.5514 27.063C31.5136 26.8024 31.288 26.6244 31.0475 26.6654C30.807 26.7063 30.6427 26.9506 30.6804 27.2113C30.6817 27.2198 30.6831 27.2282 30.6847 27.2362ZM29.5596 27.2565L29.9652 31.4661C29.9669 31.4851 29.9817 31.5 29.9998 31.5C30.0182 31.5 30.0332 31.4845 30.0344 31.4649L30.439 27.272C30.4401 27.2579 30.4406 27.2445 30.4406 27.2311C30.4406 26.9674 30.2432 26.7536 29.9998 26.7536C29.7564 26.7536 29.559 26.9674 29.559 27.2311C29.559 27.2398 29.5592 27.2483 29.5596 27.2565ZM28.4452 27.0881L28.2427 31.3149C28.2417 31.3339 28.2542 31.3511 28.272 31.3541C28.2902 31.3573 28.3072 31.3445 28.3112 31.3253L29.3117 27.2513C29.3148 27.2376 29.3173 27.2245 29.3192 27.2113C29.357 26.9506 29.1926 26.7063 28.9521 26.6654C28.7116 26.6244 28.486 26.8024 28.4482 27.063C28.447 27.0715 28.446 27.08 28.4452 27.0881ZM27.3681 26.7314L26.5539 30.8712C26.5501 30.8897 26.5599 30.9087 26.5771 30.9149C26.5947 30.921 26.6134 30.9113 26.6201 30.893L28.2001 27.0405C28.2052 27.0274 28.2095 27.0149 28.2133 27.0021C28.2885 26.7513 28.1617 26.4819 27.9302 26.4004C27.6986 26.319 27.4499 26.4564 27.3748 26.7072C27.3723 26.7154 27.3701 26.7236 27.3681 26.7314ZM26.3563 26.1955L24.9508 30.1447C24.9443 30.1624 24.9513 30.1829 24.9674 30.1918C24.9838 30.2009 25.0037 30.1945 25.013 30.1775L27.1331 26.6426C27.14 26.6305 27.146 26.6188 27.1516 26.6069C27.2624 26.3721 27.1763 26.0845 26.9595 25.9644C26.7427 25.8445 26.4771 25.9378 26.3665 26.1727C26.3628 26.1804 26.3594 26.1881 26.3563 26.1955ZM25.4349 25.4948L23.4764 29.1571C23.4674 29.1734 23.4713 29.1949 23.4859 29.2064C23.5008 29.2181 23.5214 29.2152 23.533 29.2001L26.1376 26.0679C26.1461 26.0573 26.1537 26.0468 26.161 26.0359C26.3043 25.8227 26.2609 25.524 26.064 25.3688C25.8672 25.2136 25.5914 25.2606 25.4482 25.474C25.4435 25.4809 25.439 25.4879 25.4349 25.4948ZM24.6257 24.6475L22.1649 27.9349C22.1537 27.9495 22.1544 27.9714 22.1672 27.9852C22.1802 27.9994 22.201 27.9999 22.2146 27.987L25.2375 25.3321C25.2474 25.3229 25.2565 25.3139 25.2652 25.3044C25.4374 25.1179 25.4374 24.8156 25.2652 24.6291C25.0931 24.4426 24.8139 24.4426 24.6418 24.6291C24.6362 24.6352 24.6308 24.6415 24.6257 24.6475ZM23.9481 23.6741L21.0449 26.5065C21.0317 26.5192 21.0294 26.5409 21.04 26.5567C21.0509 26.5728 21.0712 26.5769 21.0866 26.5664L24.454 24.4535C24.4652 24.4462 24.4754 24.4388 24.4854 24.431C24.6823 24.2758 24.7257 23.977 24.5824 23.7638C24.4392 23.5506 24.1634 23.5035 23.9666 23.6587C23.9602 23.6637 23.9539 23.6689 23.9481 23.6741ZM23.4189 22.5976L20.1425 24.9032C20.1277 24.9133 20.1222 24.9344 20.1304 24.9518C20.1388 24.9695 20.1584 24.977 20.1751 24.9692L23.8061 23.4531C23.8182 23.4478 23.8294 23.4422 23.8404 23.4361C24.0572 23.3162 24.1433 23.0286 24.0326 22.7936C23.9219 22.5588 23.6563 22.4656 23.4395 22.5855C23.4324 22.5893 23.4255 22.5935 23.4189 22.5976ZM23.0526 21.4438L19.482 23.1618C19.466 23.1693 19.4574 23.1893 19.463 23.2078C19.4687 23.2268 19.487 23.2375 19.5046 23.2327L23.3107 22.3548C23.3233 22.3515 23.3352 22.3479 23.347 22.3438C23.5785 22.2623 23.7053 21.9929 23.6301 21.7421C23.5549 21.4912 23.3062 21.3539 23.0747 21.4353C23.0671 21.438 23.0597 21.4409 23.0526 21.4438ZM22.8587 20.242L19.0829 21.3296C19.0659 21.3343 19.0546 21.3525 19.0575 21.3718C19.0603 21.3915 19.0768 21.4052 19.0949 21.4034L22.9811 21.1855C22.9941 21.1845 23.0063 21.1829 23.0186 21.1809C23.2591 21.1399 23.4234 20.8955 23.3856 20.635C23.3478 20.3744 23.1222 20.1964 22.8817 20.2373C22.8738 20.2387 22.8661 20.2402 22.8587 20.242ZM22.8399 19.0231L18.9541 19.4625C18.9366 19.4643 18.9229 19.4804 18.9229 19.5C18.9229 19.5199 18.9372 19.5362 18.9553 19.5375L22.8256 19.9758C22.8386 19.9769 22.8509 19.9775 22.8633 19.9775C23.1067 19.9775 23.3041 19.7637 23.3041 19.5C23.3041 19.2363 23.1067 19.0224 22.8633 19.0224C22.8553 19.0224 22.8474 19.0227 22.8399 19.0231ZM22.9953 17.8157L19.0936 17.5965C19.0762 17.5953 19.0603 17.6089 19.0575 17.6282C19.0546 17.6479 19.0664 17.6664 19.0841 17.6707L22.8447 18.7546C22.8574 18.7579 22.8695 18.7606 22.8817 18.7626C23.1222 18.8036 23.3478 18.6256 23.3856 18.365C23.4234 18.1045 23.2591 17.8601 23.0186 17.8191C23.0107 17.8177 23.0029 17.8166 22.9953 17.8157ZM23.3245 16.649L19.5033 15.767C19.4862 15.7627 19.4686 15.7735 19.463 15.7921C19.4573 15.8111 19.4663 15.8314 19.4831 15.8386L23.0393 17.5503C23.0514 17.5558 23.0629 17.5604 23.0747 17.5646C23.3062 17.6461 23.5549 17.5087 23.6301 17.2579C23.7053 17.007 23.5785 16.7376 23.347 16.6562C23.3394 16.6535 23.3318 16.6511 23.3245 16.649ZM23.8193 15.5529L20.1739 14.0302C20.1576 14.0232 20.1386 14.0308 20.1304 14.0481C20.122 14.0659 20.128 14.0875 20.1436 14.0976L23.4067 16.3944C23.4177 16.4019 23.4285 16.4084 23.4395 16.4144C23.6563 16.5344 23.9219 16.4412 24.0326 16.2063C24.1433 15.9714 24.0572 15.6837 23.8404 15.5638C23.8333 15.5599 23.8262 15.5563 23.8193 15.5529ZM24.4661 14.5547L21.0855 12.4329C21.0705 12.4232 21.0506 12.4274 21.04 12.4433C21.0291 12.4594 21.0319 12.4817 21.0459 12.4942L23.9371 15.3159C23.947 15.3251 23.9566 15.3333 23.9666 15.3413C24.1634 15.4965 24.4392 15.4494 24.5824 15.2362C24.7257 15.0229 24.6823 14.7242 24.4854 14.5691C24.479 14.564 24.4725 14.5592 24.4661 14.5547ZM25.2483 13.678L22.2137 11.0121C22.2002 11.0001 22.18 11.0009 22.1672 11.0147C22.1542 11.0288 22.1537 11.0513 22.1657 11.0661L24.6163 14.3408C24.6247 14.3516 24.633 14.3614 24.6418 14.3708C24.8139 14.5574 25.0931 14.5574 25.2652 14.3708C25.4374 14.1844 25.4374 13.882 25.2652 13.6955C25.2596 13.6894 25.2539 13.6835 25.2483 13.678ZM26.1468 12.9439L23.5321 9.79879C23.5206 9.7846 23.5005 9.78199 23.4859 9.79353C23.471 9.80525 23.4673 9.8274 23.477 9.84403L25.4273 13.492C25.434 13.5041 25.4409 13.5152 25.4482 13.5261C25.5914 13.7393 25.8672 13.7864 26.064 13.6312C26.2609 13.476 26.3043 13.1772 26.161 12.9641C26.1563 12.957 26.1515 12.9503 26.1468 12.9439ZM27.1405 12.3707L25.0123 8.82125C25.0029 8.8052 24.9834 8.79925 24.9673 8.80807C24.9509 8.81725 24.9441 8.83849 24.9512 8.85653L26.3507 12.7902C26.3556 12.8032 26.3608 12.8154 26.3665 12.8273C26.4771 13.0622 26.7427 13.1555 26.9595 13.0355C27.1763 12.9155 27.2624 12.6279 27.1516 12.393C27.1481 12.3853 27.1443 12.3778 27.1405 12.3707ZM28.2055 11.9739L26.6196 8.10572C26.6126 8.08826 26.5943 8.07903 26.5771 8.0851C26.5596 8.09127 26.5498 8.11109 26.5542 8.13012L27.3646 12.2534C27.3676 12.2671 27.3709 12.28 27.3748 12.2927C27.4499 12.5436 27.6986 12.6809 27.9302 12.5995C28.1617 12.518 28.2885 12.2486 28.2133 11.9978C28.2108 11.9896 28.2082 11.9815 28.2055 11.9739ZM29.3149 11.7637L28.3109 7.67331C28.3066 7.65497 28.2898 7.64274 28.272 7.64583C28.2538 7.64888 28.2412 7.66673 28.2428 7.68638L28.4439 11.8964C28.4449 11.9105 28.4463 11.9237 28.4482 11.9369C28.486 12.1975 28.7116 12.3755 28.9521 12.3346C29.1926 12.2936 29.357 12.0493 29.3192 11.7887C29.3179 11.7802 29.3165 11.7718 29.3149 11.7637ZM30.44 11.7434L30.0343 7.53372C30.0327 7.51485 30.0178 7.5 29.9998 7.5C29.9814 7.5 29.9663 7.51543 29.9651 7.53511L29.5606 11.728C29.5595 11.7421 29.559 11.7554 29.559 11.7688C29.559 12.0325 29.7564 12.2463 29.9998 12.2463C30.2432 12.2463 30.4406 12.0325 30.4406 11.7688C30.4406 11.7601 30.4404 11.7516 30.44 11.7434ZM29.9998 12.2497C33.6959 12.2497 36.6923 15.4958 36.6923 19.5C36.6923 23.5041 33.6959 26.7503 29.9998 26.7503C26.3036 26.7503 23.3073 23.5041 23.3073 19.5C23.3073 15.4958 26.3036 12.2497 29.9998 12.2497ZM29.9998 13.1188C33.2529 13.1188 35.8901 15.9758 35.8901 19.5C35.8901 23.0242 33.2529 25.8811 29.9998 25.8811C26.7467 25.8811 24.1095 23.0242 24.1095 19.5C24.1095 15.9758 26.7467 13.1188 29.9998 13.1188ZM25.0815 21.4152C25.6837 20.0506 26.516 18.8449 27.4784 17.8306C27.6289 17.9376 27.7779 18.0486 27.9253 18.1636C26.9146 19.2102 26.0338 20.5053 25.3694 22.0921C25.2603 21.8747 25.1642 21.6485 25.0815 21.4152ZM30.4153 18.1216C30.5519 18.2456 30.6866 18.3738 30.8191 18.506C30.9604 18.3804 31.1037 18.259 31.2488 18.1419C31.1165 18.0122 30.9821 17.8862 30.8458 17.7636C30.7005 17.879 30.557 17.9984 30.4153 18.1216ZM29.5595 17.414C29.7079 17.5257 29.8548 17.6414 29.9998 17.7613C30.1448 17.6414 30.2917 17.5257 30.4401 17.414C30.2957 17.2945 30.1489 17.1784 29.9998 17.0659C29.8514 17.1779 29.7045 17.2939 29.5595 17.414ZM29.5989 18.8962C29.7348 19.029 29.8684 19.1661 29.9998 19.3076C30.1311 19.1661 30.2648 19.029 30.4007 18.8962C30.2693 18.7602 30.1356 18.6276 29.9998 18.4989C29.864 18.6276 29.7304 18.7602 29.5989 18.8962ZM28.7509 18.1419C28.896 18.259 29.0392 18.3804 29.1805 18.506C29.3131 18.3738 29.4478 18.2456 29.5844 18.1216C29.4426 17.9984 29.2991 17.879 29.1538 17.7636C29.0176 17.8862 28.8831 18.0122 28.7509 18.1419ZM31.3858 16.7697C31.2399 16.6491 31.0923 16.5323 30.9431 16.4197C30.7734 16.5247 30.6048 16.6349 30.4378 16.75C30.5902 16.8595 30.7412 16.9732 30.8903 17.0911C31.0539 16.9794 31.2191 16.8722 31.3858 16.7697ZM32.1654 17.47C32.0345 17.3424 31.9015 17.218 31.7667 17.0973C31.6075 17.2017 31.4494 17.3108 31.2929 17.4241C31.4308 17.5433 31.5669 17.6665 31.701 17.7937C31.8542 17.6815 32.0092 17.5738 32.1654 17.47ZM29.4691 16.1213C29.6444 15.9999 29.8215 15.8838 29.9998 15.7734C30.1782 15.8838 30.3552 15.9999 30.5305 16.1213C30.3521 16.2257 30.175 16.3352 29.9998 16.4498C29.8245 16.3352 29.6475 16.2257 29.4691 16.1213ZM28.6139 16.7697C28.7597 16.6491 28.9073 16.5323 29.0565 16.4197C29.2262 16.5247 29.3948 16.6349 29.5618 16.75C29.4093 16.8595 29.2584 16.9732 29.1093 17.0911C28.9457 16.9794 28.7805 16.8722 28.6139 16.7697ZM27.8341 17.47C27.9651 17.3424 28.098 17.218 28.2329 17.0973C28.3921 17.2017 28.5502 17.3108 28.7067 17.4241C28.5688 17.5433 28.4327 17.6665 28.2986 17.7937C28.1454 17.6815 27.9905 17.5738 27.8341 17.47ZM25.3768 16.6361C25.9216 16.8726 26.4649 17.1631 26.9953 17.5036C26.1788 18.3467 25.4466 19.3516 24.8441 20.541C24.7714 20.1635 24.7331 19.7722 24.7331 19.3714C24.7331 18.3802 24.9664 17.4482 25.3768 16.6361ZM25.8245 15.8939C26.4666 16.1188 27.1129 16.4208 27.7453 16.7938C27.6091 16.9119 27.4748 17.034 27.3424 17.16C26.7649 16.8144 26.1717 16.5224 25.5734 16.2788C25.6523 16.1466 25.7361 16.0182 25.8245 15.8939ZM26.386 15.2211C27.112 15.4274 27.85 15.7355 28.5731 16.1365C28.4206 16.2471 28.2697 16.3618 28.1206 16.4808C27.4515 16.1097 26.7643 15.8076 26.0755 15.5665C26.1745 15.4468 26.2781 15.3315 26.386 15.2211ZM27.205 14.5348C27.2205 14.541 27.2368 14.5472 27.2539 14.5535C27.2732 14.5588 27.2925 14.5642 27.3118 14.5695C28.0511 14.778 28.8031 15.0923 29.5394 15.5028C29.3523 15.6133 29.167 15.7296 28.9836 15.8514C28.2711 15.4755 27.5407 15.1756 26.8114 14.9427C26.8051 14.9408 26.7645 14.9256 26.7187 14.9083C26.874 14.7743 27.0363 14.6495 27.205 14.5348ZM32.3456 14.262C32.3173 14.2718 32.2966 14.2791 32.2904 14.2818C31.5211 14.5246 30.7501 14.8415 29.9998 15.2436C29.2638 14.8491 28.5077 14.5366 27.7529 14.2956C27.7384 14.291 27.7238 14.2864 27.7092 14.2818C27.6886 14.276 27.6698 14.2696 27.6524 14.2628C28.3592 13.8809 29.1563 13.6656 29.9998 13.6656C30.8427 13.6656 31.6393 13.8804 32.3456 14.262ZM33.2859 14.9127C33.2663 14.9191 33.2482 14.9247 33.2329 14.9287C32.4888 15.1634 31.7431 15.4678 31.016 15.8514C30.8326 15.7296 30.6473 15.6133 30.4602 15.5028C31.2157 15.0815 31.9878 14.7616 32.7456 14.5535C32.7643 14.5502 32.783 14.5454 32.8014 14.5394C32.9695 14.6542 33.1313 14.7787 33.2859 14.9127ZM33.9241 15.5665C33.2352 15.8076 32.5482 16.1097 31.879 16.4808C31.73 16.3618 31.579 16.2471 31.4265 16.1365C32.1497 15.7355 32.8876 15.4274 33.6136 15.2211C33.7215 15.3315 33.8251 15.4468 33.9241 15.5665ZM34.4263 16.2788C33.8279 16.5224 33.2347 16.8144 32.6573 17.16C32.5248 17.034 32.3905 16.9119 32.2543 16.7938C32.8866 16.4208 33.533 16.1188 34.1752 15.8939C34.2636 16.0182 34.3475 16.1466 34.4263 16.2788ZM35.1555 20.541C34.5531 19.3517 33.8208 18.3467 33.0043 17.5036C33.5347 17.1631 34.0779 16.8726 34.6228 16.6361C35.033 17.4483 35.2665 18.3802 35.2665 19.3714C35.2665 19.7722 35.2282 20.1635 35.1555 20.541ZM34.6302 22.0921C33.9658 20.5053 33.085 19.2102 32.0743 18.1636C32.2218 18.0486 32.3708 17.9376 32.5211 17.8306C33.4836 18.8449 34.3159 20.0506 34.9182 21.4152C34.8355 21.6485 34.7394 21.8747 34.6302 22.0921ZM33.8099 23.3105C33.1683 21.5189 32.2643 20.069 31.2038 18.908C31.343 18.7777 31.4843 18.6515 31.6275 18.5289C32.725 19.6982 33.6494 21.1183 34.2506 22.7399C34.115 22.9403 33.968 23.1311 33.8099 23.3105ZM32.8157 24.1935L32.7456 23.9897C32.164 22.2878 31.3483 20.8875 30.3864 19.7448C30.5175 19.5979 30.6514 19.4545 30.7878 19.3149C31.8893 20.5604 32.7944 22.0681 33.3388 23.7838C33.1726 23.9315 32.9979 24.0684 32.8157 24.1935ZM27.7199 24.5161L27.7873 24.2881C28.2725 22.7441 29.0497 21.368 29.9998 20.1987C30.9499 21.368 31.7271 22.7441 32.2123 24.2881L32.2813 24.5153C31.591 24.8753 30.8172 25.077 29.9998 25.077C29.1831 25.077 28.4097 24.8756 27.7199 24.5161ZM26.6608 23.7838C27.2053 22.0681 28.1103 20.5604 29.2118 19.3149C29.3482 19.4545 29.4821 19.5979 29.6132 19.7448C28.6513 20.8875 27.8356 22.2878 27.2539 23.9897L27.1841 24.1937C27.0018 24.0685 26.8271 23.9316 26.6608 23.7838ZM25.749 22.7399C26.3503 21.1183 27.2746 19.6982 28.3722 18.5289C28.5153 18.6515 28.6566 18.7777 28.7958 18.908C27.7354 20.069 26.8313 21.5189 26.1897 23.3105C26.0317 23.1311 25.8846 22.9403 25.749 22.7399Z" fill="#FFFF00"/>
</g>
<defs>
<clipPath id="clip0_1047_736">
<rect width="60" height="39" rx="9" fill="white"/>
</clipPath>
</defs>
</svg>
