<svg width="60" height="39" viewBox="0 0 60 39" fill="none" xmlns="http://www.w3.org/2000/svg">
<g clip-path="url(#clip0_1052_17)">
<path d="M0 -1.52588e-05H60V39H0V-1.52588e-05Z" fill="#E30A17"/>
<path d="M27.8335 19.5L36.8789 16.6348L31.2882 24.1365V14.8636L36.8789 22.3652L27.8335 19.5ZM28.4502 24.7137C27.2917 26.4987 25.5698 27.8686 23.5438 28.6172C21.5178 29.3658 19.2973 29.4527 17.2163 28.8646C15.1353 28.2766 13.3065 27.0455 12.0051 25.3566C10.7037 23.6677 10 21.6124 10 19.5C10 17.3876 10.7037 15.3323 12.0051 13.6434C13.3065 11.9545 15.1353 10.7234 17.2163 10.1354C19.2973 9.54734 21.5178 9.63416 23.5438 10.3828C25.5698 11.1314 27.2917 12.5013 28.4502 14.2864C27.3683 13.1126 25.9467 12.2863 24.3731 11.9168C22.7995 11.5473 21.1479 11.6519 19.6366 12.2167C18.1252 12.7816 16.8251 13.7801 15.908 15.0805C14.9909 16.3809 14.4999 17.9219 14.4999 19.5C14.4999 21.0781 14.9909 22.6191 15.908 23.9195C16.8251 25.2199 18.1252 26.2184 19.6366 26.7833C21.1479 27.3481 22.7995 27.4527 24.3731 27.0832C25.9467 26.7137 27.3683 25.8874 28.4502 24.7137Z" fill="white"/>
</g>
<defs>
<clipPath id="clip0_1052_17">
<rect width="60" height="39" rx="9" fill="white"/>
</clipPath>
</defs>
</svg>
